<?xml version="1.0" encoding="UTF-8" standalone="no"?>
<svg
   xmlns:dc="http://purl.org/dc/elements/1.1/"
   xmlns:cc="http://creativecommons.org/ns#"
   xmlns:rdf="http://www.w3.org/1999/02/22-rdf-syntax-ns#"
   xmlns:svg="http://www.w3.org/2000/svg"
   xmlns="http://www.w3.org/2000/svg"
   xmlns:xlink="http://www.w3.org/1999/xlink"
   xmlns:sodipodi="http://sodipodi.sourceforge.net/DTD/sodipodi-0.dtd"
   xmlns:inkscape="http://www.inkscape.org/namespaces/inkscape"
   inkscape:version="1.0 (4035a4f, 2020-05-01)"
   sodipodi:docname="yarc_logo_icon.svg"
   id="svg938"
   preserveAspectRatio="xMidYMid meet"
   viewBox="0 0 4518.4985 3363.0483"
   height="336.30484"
   width="451.84985"
   version="1.0">
  <g
     id="g2546"
     transform="matrix(0.78532528,0,0,0.82497234,0,47.001105)">
    <path
       sodipodi:arc-type="slice"
       sodipodi:end="3.2409019"
       sodipodi:start="3.2420887"
       sodipodi:ry="330"
       sodipodi:rx="320"
       sodipodi:cy="1853.1482"
       sodipodi:cx="4410.8452"
       sodipodi:type="arc"
       id="path966"
       style="fill:#0b8dbd;fill-opacity:1;stroke:none;stroke-width:10"
       d="m 4092.4598,1820.0403 a 320,330 0 0 1 350.3956,-295.2369 320,330 0 0 1 286.3943,361.2579 320,330 0 0 1 -350.2257,295.4512 320,330 0 0 1 -286.6021,-361.0825 l 318.4233,32.7182 z" />
    <path
       sodipodi:arc-type="slice"
       sodipodi:end="3.2409019"
       sodipodi:start="3.2420887"
       sodipodi:ry="320"
       sodipodi:rx="320"
       sodipodi:cy="825.07562"
       sodipodi:cx="2961.2114"
       sodipodi:type="arc"
       id="path1793"
       style="fill:#fad10d;fill-opacity:1;stroke:none;stroke-width:10"
       d="m 2642.826,792.97099 a 320,320 0 0 1 350.3956,-286.29033 320,320 0 0 1 286.3943,350.31066 320,320 0 0 1 -350.2257,286.49818 320,320 0 0 1 -286.6021,-350.14063 l 318.4233,31.72675 z" />
    <path
       sodipodi:arc-type="slice"
       sodipodi:end="3.2409019"
       sodipodi:start="3.2420887"
       sodipodi:ry="320"
       sodipodi:rx="325"
       sodipodi:cy="1935.3303"
       sodipodi:cx="1348.9449"
       sodipodi:type="arc"
       id="path1834"
       style="fill:#e3290f;fill-opacity:1;stroke:none;stroke-width:10.0778"
       d="m 1025.5847,1903.2257 a 325,320 0 0 1 355.8706,-286.2903 325,320 0 0 1 290.8692,350.3106 325,320 0 0 1 -355.698,286.4982 325,320 0 0 1 -291.0802,-350.1406 l 323.3986,31.7267 z" />
    <g
       transform="translate(1.5724877e-7,40)"
       id="g2503">
      <path
         d="m 1851.0059,3024.4098 c -375,-270 -769.7616,-446.7657 -1664.76159,-459.7657 -181.000002,-3 -207.000002,-10 -174.000002,-47 43,-47 228.000002,-112 406.000002,-142 222,-37 349,-49 614.99999,-59 420,-14 523,-37 625,-139 68,-68 95,-148 94,-276 0,-81 -6,-115 -28,-179 -78,-229 -211,-432 -477,-726.99995 -60,-67 -117,-134.99999 -125,-149.99999 -14,-27 -13,-29 6,-29 56,0 325,178.99999 489,324.99994 188,166 437,440 581,640 52,72 97,132 101,135 3,3 30,40 58,83 99,147 226,409 307,634 101.3286,356.6144 201.4802,724.0628 231,1068 9.6816,66.4044 15.1627,149.4823 26.9416,178.9487 -310.9747,-145.5174 -740.5897,-614.0354 -1071.18,-856.183 z"
         id="path733"
         sodipodi:nodetypes="cccccsccccscccccccc"
         style="fill:#e3290f;stroke:none" />
      <path
         d="m 3780.9227,1386.5662 c 269,-294 568.0983,-523.30053 775.0983,-628.30053 62,-31 92,-38 92,-19 0,13 -33,61 -71,104 -15,17 -71,79.99998 -124,139.99998 -89.4102,95.26665 -178.0171,210.58805 -242,309.99995 -91.5012,133.6638 -169.7774,289.8928 -199,428 -50,248 55,426 287,482 37,9 154,20 279,25 504,23 613,34 810,76 229,49 396,126 361,167 -8,11 -72,15 -283,21 -1286.4174,-116.81 -1854.8098,1072.8098 -2492.9039,1387.5554 0.3181,-1.1158 0.5766,-2.2514 0.9538,-3.3511 237.1403,-691.3945 309.4673,-1866.2834 806.8518,-2489.9037 z"
         id="path754"
         sodipodi:nodetypes="ccsccccccccccsc"
         style="fill:#0b8dbd;stroke:none" />
      <g
         transform="translate(-16.788793,-62.924551)"
         stroke="none"
         fill="#fad10d"
         id="layer104">
        <path
           sodipodi:nodetypes="cc"
           id="path759"
           d="m 2915,3901 c -1958,-2602 -979,-1301 0,0 z" />
        <path
           sodipodi:nodetypes="ccccccccsccccc"
           id="path761"
           d="M 2343,1928 C 2292.7171,1631.8041 2240.3121,1329.6354 2195,1030 2108,468 2110.3617,136 2135.217,79.770931 2161.9275,4.3549807 2223.8886,204.21419 2234,245 c 15,65 53,200 93,335 97,323 255,551 445,644 95,47 163,59 242,45 175,-31 316,-156 574,-508 193,-264 536,-611 603,-611 34,0 -13,48 -61,173 -452,975 -902,2075 -1034.9594,3115.7195 -17.423,94.2806 -66.5921,336.2042 -90.2406,413.2154 -26.8203,66.6974 -47.2007,111.765 -60.801,86.469 C 2872.1614,3236.9309 2777.5787,2520.8613 2343,1928 Z" />
      </g>
    </g>
  </g>
  <metadata
     id="metadata944">
    <rdf:RDF>
      <cc:Work
         rdf:about="">
        <dc:format>image/svg+xml</dc:format>
        <dc:type
           rdf:resource="http://purl.org/dc/dcmitype/StillImage" />
        <dc:title />
      </cc:Work>
    </rdf:RDF>
  </metadata>
  <defs
     id="defs942">
    <rect
       x="-85.862495"
       y="6370.9971"
       width="5872.9946"
       height="1494.0074"
       id="rect4493" />
    <rect
       id="rect4173"
       height="3045.271"
       width="7184.9365"
       y="7406.9873"
       x="63.44315" />
    <rect
       id="rect4157"
       height="1263.7441"
       width="7320.1787"
       y="6127.9673"
       x="-631.87207" />
    <linearGradient
       id="linearGradient1705"
       inkscape:collect="always">
      <stop
         id="stop1701"
         offset="0"
         style="stop-color:#000000;stop-opacity:1;" />
      <stop
         id="stop1703"
         offset="1"
         style="stop-color:#000000;stop-opacity:0;" />
    </linearGradient>
    <linearGradient
       gradientTransform="matrix(0.80306977,0,0,0.82497234,-239.06408,-812.51629)"
       gradientUnits="userSpaceOnUse"
       y2="404.92535"
       x2="1507.8157"
       y1="404.92535"
       x1="1163.8567"
       id="linearGradient1707"
       xlink:href="#linearGradient1705"
       inkscape:collect="always" />
    <rect
       x="-631.87207"
       y="6127.9673"
       width="7320.1787"
       height="1263.7441"
       id="rect4165" />
    <rect
       id="rect4193"
       height="1263.7441"
       width="7320.1787"
       y="6127.9673"
       x="-631.87207" />
    <rect
       x="63.44315"
       y="7406.9873"
       width="7184.9365"
       height="3045.271"
       id="rect4195" />
  </defs>
  <sodipodi:namedview
     inkscape:snap-grids="false"
     fit-margin-bottom="8"
     fit-margin-right="0"
     fit-margin-left="0"
     fit-margin-top="8"
     inkscape:snap-object-midpoints="true"
     inkscape:snap-global="true"
     inkscape:snap-nodes="false"
     inkscape:snap-intersection-paths="false"
     inkscape:current-layer="svg938"
     inkscape:window-maximized="0"
     inkscape:window-y="23"
     inkscape:window-x="0"
     inkscape:cy="152.32721"
     inkscape:cx="248.50137"
     inkscape:zoom="1.4475754"
     showgrid="true"
     id="namedview940"
     inkscape:window-height="855"
     inkscape:window-width="1440"
     inkscape:pageshadow="2"
     inkscape:pageopacity="1"
     guidetolerance="10"
     gridtolerance="10"
     objecttolerance="10"
     borderopacity="1"
     bordercolor="#666666"
     pagecolor="#bebebe"
     inkscape:document-rotation="0"
     inkscape:object-nodes="true"
     inkscape:object-paths="true"
     inkscape:snap-smooth-nodes="true"
     inkscape:snap-others="true"
     inkscape:pagecheckerboard="true">
    <inkscape:grid
       originy="-542.08651"
       originx="-520.14207"
       id="grid1836"
       type="xygrid" />
  </sodipodi:namedview>
  <circle
     r="1000"
     cy="-1875.8479"
     cx="686.23792"
     id="path1709"
     style="opacity:0;fill:#471b35;fill-opacity:1;stroke:#f21212;stroke-width:10;stroke-opacity:1" />
  <text
     xml:space="preserve"
     id="text4491"
     style="font-style:normal;font-weight:normal;font-size:400px;line-height:1.25;font-family:sans-serif;white-space:pre;shape-inside:url(#rect4493);fill:#000000;fill-opacity:1;stroke:none;"
     transform="translate(-448.30323,-525.35195)" />
  <ellipse
     ry="134.30965"
     rx="134.09621"
     cy="-478.46417"
     cx="833.70563"
     id="path1691"
     style="opacity:0;fill:#7cff82;fill-opacity:1;stroke:url(#linearGradient1707);stroke-width:8.13947" />
</svg>
