<?xml version="1.0" encoding="UTF-8" standalone="no"?>
<svg
   xmlns:dc="http://purl.org/dc/elements/1.1/"
   xmlns:cc="http://creativecommons.org/ns#"
   xmlns:rdf="http://www.w3.org/1999/02/22-rdf-syntax-ns#"
   xmlns:svg="http://www.w3.org/2000/svg"
   xmlns="http://www.w3.org/2000/svg"
   xmlns:sodipodi="http://sodipodi.sourceforge.net/DTD/sodipodi-0.dtd"
   xmlns:inkscape="http://www.inkscape.org/namespaces/inkscape"
   version="1.0"
   width="583px"
   height="609px"
   viewBox="0 0 5830 6090"
   preserveAspectRatio="xMidYMid meet"
   id="svg938"
   sodipodi:docname="ya_222_r3.svg"
   inkscape:version="1.0 (4035a4f, 2020-05-01)">
  <metadata
     id="metadata944">
    <rdf:RDF>
      <cc:Work
         rdf:about="">
        <dc:format>image/svg+xml</dc:format>
        <dc:type
           rdf:resource="http://purl.org/dc/dcmitype/StillImage" />
        <dc:title></dc:title>
      </cc:Work>
    </rdf:RDF>
  </metadata>
  <defs
     id="defs942" />
  <sodipodi:namedview
     inkscape:snap-others="false"
     inkscape:snap-smooth-nodes="true"
     inkscape:object-paths="true"
     inkscape:object-nodes="true"
     inkscape:document-rotation="0"
     pagecolor="#ffffff"
     bordercolor="#666666"
     borderopacity="1"
     objecttolerance="10"
     gridtolerance="10"
     guidetolerance="10"
     inkscape:pageopacity="0"
     inkscape:pageshadow="2"
     inkscape:window-width="1440"
     inkscape:window-height="855"
     id="namedview940"
     showgrid="true"
     inkscape:zoom="0.92624284"
     inkscape:cx="402.40826"
     inkscape:cy="307.22363"
     inkscape:window-x="0"
     inkscape:window-y="23"
     inkscape:window-maximized="0"
     inkscape:current-layer="svg938"
     inkscape:snap-intersection-paths="false">
    <inkscape:grid
       type="xygrid"
       id="grid1836" />
  </sodipodi:namedview>
  <g
     id="layer102"
     fill="#e3290f"
     stroke="none"
     transform="translate(27.033101,71.568714)">
    <path
       d="M 1862.7616,3017.7657 C 1487.7616,2747.7657 1093,2571 198,2558 17,2555 -9,2548 24,2511 c 43,-47 228,-112 406,-142 222,-37 349,-49 615,-59 420,-14 523,-37 625,-139 68,-68 95,-148 94,-276 0,-81 -6,-115 -28,-179 -78,-229 -211,-432 -477,-727 -60,-67 -117,-135 -125,-150 -14,-27 -13,-29 6,-29 56,0 325,179 489,325 188,166 437,440 581,640 52,72 97,132 101,135 3,3 30,40 58,83 99,147 226,409 307,634 101.3286,356.6144 201.4802,724.0628 231,1068 9.6816,66.4044 15.1627,149.4823 26.9416,178.9487 -310.9747,-145.5174 -740.5897,-614.0354 -1071.18,-856.183 z"
       id="path733"
       sodipodi:nodetypes="cccccsccccscccccccc" />
    <path
       style="fill:#e3290f;fill-opacity:1;stroke-width:10"
       id="path1834"
       sodipodi:type="arc"
       sodipodi:cx="1384.7893"
       sodipodi:cy="1899.8964"
       sodipodi:rx="320"
       sodipodi:ry="320"
       sodipodi:start="3.2420887"
       sodipodi:end="3.2409019"
       sodipodi:arc-type="slice"
       d="m 1066.4039,1867.7917 a 320,320 0 0 1 350.3956,-286.2903 320,320 0 0 1 286.3942,350.3107 320,320 0 0 1 -350.2256,286.4982 320,320 0 0 1 -286.6021,-350.1407 l 318.4233,31.7268 z" />
  </g>
  <g
     transform="translate(6.8097762,-6.8097802)"
     id="g931"
     style="fill:#0b8dbd;stroke:none">
    <path
       d="m 208.19022,4784.8098 c 0,-1149 2,-1320 15,-1324 28,-11 225,-30 232,-23 5,4 10,562 13,1239 5,1224 5,1232 25,1230 11,0 200,-100 450,-150 782.93628,-145.2426 1390.03208,-294.2382 1949.99998,200 -805.9662,-390.1961 -2699.99998,200 -2681.80975,143.8098 0,-50 -3.19023,-266.8098 -3.19023,-1315.8098 z"
       id="path738"
       sodipodi:nodetypes="scccccccs" />
    <path
       d="m 1469.6398,5468.791 c -276,37 -431.8098,63.8145 -653.28863,104.8286 -50,10 -180,40 -204.19022,41.1902 -25.37765,-464.991 -17.93982,-923.5941 -18,-1320 -1,-838 3,-1339 9,-1343 5,-3 59,-11 120,-17 95,-10 113,-10 121,3 5,8 9,519 9,1242 0,675 2,1227 3,1227 C 1196.3511,5246.4099 2150.2007,5162.256 2852.6845,5718.9302 2397.7013,5473.5823 1896.3511,5413.6196 1469.6398,5468.791 Z"
       id="path748"
       sodipodi:nodetypes="cccccccsccc" />
    <path
       d="m 983.19032,5162.8098 c -17.00004,-1 -18.00004,-56 -18.00004,-1006 v -1005 c 78.91632,-0.5144 165.48252,-0.4738 219.03692,0.1929 l -9.037,943.8071 c -8.1863,854.9609 1,907 18,911 127.3061,-23.5887 1039.7538,-52.7961 1542,508 -534.3588,-313.1147 -1195.9366,-517.4754 -1751.99988,-352 z"
       id="path752"
       sodipodi:nodetypes="csccsccc" />
  </g>
  <path
     sodipodi:arc-type="slice"
     sodipodi:end="3.2409019"
     sodipodi:start="3.2420887"
     sodipodi:ry="320"
     sodipodi:rx="320"
     sodipodi:cy="850"
     sodipodi:cx="3000"
     sodipodi:type="arc"
     id="path1793"
     style="fill:#fad10d;fill-opacity:1;stroke:none;stroke-width:10"
     d="M 2681.6146,817.89537 A 320,320 0 0 1 3032.0102,531.60504 320,320 0 0 1 3318.4044,881.9157 320,320 0 0 1 2968.1788,1168.4139 320,320 0 0 1 2681.5767,818.27325 L 3000,850 Z" />
  <path
     style="fill:none;stroke:#000000;stroke-width:10px;stroke-linecap:butt;stroke-linejoin:miter;stroke-opacity:1"
     d="m 3000,6300 c 0,0 0,0 0,0 z"
     id="path891" />
  <g
     id="g939"
     transform="matrix(-1,0,0,1,5893.1902,-6.8098)"
     style="fill:#0b8dbd;stroke:none">
    <path
       sodipodi:nodetypes="scccccccs"
       id="path933"
       d="m 208.19022,4784.8098 c 0,-1149 2,-1320 15,-1324 28,-11 225,-30 232,-23 5,4 10,562 13,1239 5,1224 5,1232 25,1230 11,0 200,-100 450,-150 782.93628,-145.2426 1390.03208,-294.2382 1949.99998,200 -805.9662,-390.1961 -2699.99998,200 -2681.80975,143.8098 0,-50 -3.19023,-266.8098 -3.19023,-1315.8098 z" />
    <path
       sodipodi:nodetypes="cccccccsccc"
       id="path935"
       d="m 1469.6398,5468.791 c -276,37 -431.8098,63.8145 -653.28863,104.8286 -50,10 -180,40 -204.19022,41.1902 -25.37765,-464.991 -17.93982,-923.5941 -18,-1320 -1,-838 3,-1339 9,-1343 5,-3 59,-11 120,-17 95,-10 113,-10 121,3 5,8 9,519 9,1242 0,675 2,1227 3,1227 C 1196.3511,5246.4099 2150.2007,5162.256 2852.6845,5718.9302 2397.7013,5473.5823 1896.3511,5413.6196 1469.6398,5468.791 Z" />
    <path
       sodipodi:nodetypes="csccsccc"
       id="path937"
       d="m 983.19032,5162.8098 c -17.00004,-1 -18.00004,-56 -18.00004,-1006 v -1005 c 78.91632,-0.5144 165.48252,-0.4738 219.03692,0.1929 l -9.037,943.8071 c -8.1863,854.9609 1,907 18,911 127.3061,-23.5887 1039.7538,-52.7961 1542,508 -534.3588,-313.1147 -1195.9366,-517.4754 -1751.99988,-352 z" />
  </g>
  <g
     id="layer104"
     fill="#fad10d"
     stroke="none"
     transform="translate(22,2)">
    <path
       d="m 2915,3901 c -1958,-2602 -979,-1301 0,0 z"
       id="path759"
       sodipodi:nodetypes="cc" />
    <path
       d="M 2316.0331,1979.5687 C 2265.7502,1683.3728 2240.3121,1329.6354 2195,1030 2108,468 2110.3617,136 2135.217,79.770931 2161.9275,4.3549807 2223.8886,204.21419 2234,245 c 15,65 53,200 93,335 97,323 255,551 445,644 95,47 163,59 242,45 175,-31 316,-156 574,-508 193,-264 536,-611 603,-611 34,0 -13,48 -61,173 -452,1175 -752,2075 -1034.9594,3115.7195 -17.423,94.2806 -66.5921,336.2042 -90.2406,413.2154 -26.8203,66.6974 -47.2007,111.765 -60.801,86.469 C 2828,3248 2728,2598 2316.0331,1979.5687 Z"
       id="path761"
       sodipodi:nodetypes="ccccccccsccccc" />
  </g>
  <g
     id="layer107"
     fill="#fceba6"
     stroke="none"
     transform="translate(2492.6377,-5128.3295)">
    <path
       d="m 2841,3949 c -69,-13 -59,-17 43,-16 80,2 91,4 73,14 -25,14 -53,14 -116,2 z"
       id="path872" />
    <path
       d="m 3396,1988 c 14,-73 119,-425 147,-488 9,-19 30,-73 48,-120 37,-98 61,-152 170,-377 44,-89 79,-165 79,-169 0,-4 6,-15 14,-23 7,-9 35,-59 61,-111 27,-52 54,-102 60,-110 7,-8 28,-45 48,-82 20,-36 68,-120 107,-185 81,-135 95,-173 61,-173 -67,0 -410,347 -603,611 -142,194 -246,315 -341,395 -102,88 -242,134 -348,114 -208,-38 -401,-239 -520,-540 -35,-86 -112,-346 -145,-485 -22,-91 -49,-143 -80,-151 -15,-4 -30,-2 -37,5 -37,37 -9,369 78,931 51,331 84,531 105,635 11,50 22,122 26,160 7,65 6,69 -10,56 -9,-8 -22,-24 -28,-35 -10,-19 -10,-20 6,-7 17,14 17,12 11,-35 -3,-27 -10,-69 -16,-94 -41,-197 -149,-893 -174,-1120 -9,-80 -20,-167 -25,-195 -12,-62 -11,-251 1,-282 13,-36 52,-50 83,-29 26,17 66,87 66,116 0,9 9,43 19,76 10,32 26,84 34,114 56,203 80,278 92,303 8,16 15,33 15,39 0,17 100,212 120,233 10,11 25,31 32,45 23,43 150,156 218,193 187,102 351,61 540,-135 99,-103 170,-183 170,-193 0,-4 20,-30 43,-58 24,-29 58,-72 74,-97 17,-25 43,-56 57,-69 14,-14 26,-30 26,-36 0,-18 261,-292 384,-405 92,-83 158,-102 164,-48 3,26 -28,101 -47,113 -5,3 -16,18 -24,33 -36,70 -67,123 -86,150 -11,17 -21,34 -21,39 0,6 -17,36 -38,69 -21,32 -61,104 -89,159 -28,55 -62,120 -77,145 -14,25 -29,52 -32,60 -8,20 -88,189 -130,275 -42,87 -104,241 -104,258 0,7 -9,31 -21,52 -25,49 -39,90 -74,220 -14,55 -30,109 -35,120 -18,44 -29,82 -36,118 -3,20 -10,40 -15,43 -5,3 -6,-10 -3,-28 z"
       id="path874" />
    <path
       d="m 2845,936 c -27,-13 -66,-41 -86,-62 -72,-77 -101,-227 -59,-304 10,-19 23,-44 29,-56 16,-35 96,-98 147,-117 54,-19 140,-22 194,-7 57,16 150,93 172,141 33,76 40,126 27,207 -11,70 -15,77 -64,126 -75,76 -122,96 -226,95 -66,0 -95,-5 -134,-23 z m 233,-3 c 74,-34 119,-74 148,-131 60,-119 28,-267 -75,-345 -62,-47 -94,-59 -166,-60 -101,-1 -197,54 -249,144 -34,59 -42,123 -26,200 20,91 93,166 200,202 35,12 134,6 168,-10 z"
       id="path876" />
  </g>
  <g
     style="fill:#0b8dbd;fill-opacity:1"
     transform="matrix(-1,0,0,1,5933.9416,76.0513)"
     stroke="none"
     fill="#e3290f"
     id="g963">
    <path
       style="fill:#0b8dbd;fill-opacity:1"
       sodipodi:nodetypes="cccccsccccscccccccc"
       id="path959"
       d="M 1862.7616,3017.7657 C 1487.7616,2747.7657 1093,2571 198,2558 17,2555 -9,2548 24,2511 c 43,-47 228,-112 406,-142 222,-37 349,-49 615,-59 420,-14 523,-37 625,-139 68,-68 95,-148 94,-276 0,-81 -6,-115 -28,-179 -78,-229 -211,-432 -477,-727 -60,-67 -117,-135 -125,-150 -14,-27 -13,-29 6,-29 56,0 325,179 489,325 188,166 437,440 581,640 52,72 97,132 101,135 3,3 30,40 58,83 99,147 226,409 307,634 101.3286,356.6144 201.4802,724.0628 231,1068 9.6816,66.4044 15.1627,149.4823 26.9416,178.9487 -310.9747,-145.5174 -740.5897,-614.0354 -1071.18,-856.183 z" />
    <path
       d="m 1066.4039,1867.7917 a 320,320 0 0 1 350.3956,-286.2903 320,320 0 0 1 286.3942,350.3107 320,320 0 0 1 -350.2256,286.4982 320,320 0 0 1 -286.6021,-350.1407 l 318.4233,31.7268 z"
       sodipodi:arc-type="slice"
       sodipodi:end="3.2409019"
       sodipodi:start="3.2420887"
       sodipodi:ry="320"
       sodipodi:rx="320"
       sodipodi:cy="1899.8964"
       sodipodi:cx="1384.7893"
       sodipodi:type="arc"
       id="path961"
       style="fill:#0b8dbd;fill-opacity:1;stroke-width:10" />
  </g>
</svg>
