<?xml version="1.0" encoding="UTF-8" standalone="no"?>
<svg
   xmlns:dc="http://purl.org/dc/elements/1.1/"
   xmlns:cc="http://creativecommons.org/ns#"
   xmlns:rdf="http://www.w3.org/1999/02/22-rdf-syntax-ns#"
   xmlns:svg="http://www.w3.org/2000/svg"
   xmlns="http://www.w3.org/2000/svg"
   xmlns:sodipodi="http://sodipodi.sourceforge.net/DTD/sodipodi-0.dtd"
   xmlns:inkscape="http://www.inkscape.org/namespaces/inkscape"
   version="1.0"
   width="1661.0104"
   height="1049.2333"
   viewBox="0 0 16610.106 10492.333"
   preserveAspectRatio="xMidYMid meet"
   id="svg938"
   sodipodi:docname="duo_logo.svg"
   inkscape:version="1.0 (4035a4f, 2020-05-01)">
  <metadata
     id="metadata944">
    <rdf:RDF>
      <cc:Work
         rdf:about="">
        <dc:format>image/svg+xml</dc:format>
        <dc:type
           rdf:resource="http://purl.org/dc/dcmitype/StillImage" />
        <dc:title />
      </cc:Work>
    </rdf:RDF>
  </metadata>
  <defs
     id="defs942">
    <rect
       x="116.94645"
       y="5917.4902"
       width="15811.16"
       height="1426.7467"
       id="rect1111" />
    <rect
       x="93.557159"
       y="5987.6582"
       width="14594.917"
       height="1263.0216"
       id="rect1105" />
    <rect
       x="23.38929"
       y="6081.2153"
       width="16466.061"
       height="1356.5789"
       id="rect1099" />
    <rect
       id="rect4493"
       height="1494.0074"
       width="5872.9946"
       y="6370.9971"
       x="-85.862495" />
    <rect
       x="63.44315"
       y="7406.9873"
       width="7184.9365"
       height="3045.271"
       id="rect4173" />
    <rect
       x="-631.87207"
       y="6127.9673"
       width="7320.1787"
       height="1263.7441"
       id="rect4157" />
    <rect
       id="rect4165"
       height="1263.7441"
       width="7320.1787"
       y="6127.9673"
       x="-631.87207" />
    <rect
       x="-631.87207"
       y="6127.9673"
       width="7320.1787"
       height="1263.7441"
       id="rect4193" />
    <rect
       id="rect4195"
       height="3045.271"
       width="7184.9365"
       y="7406.9873"
       x="63.44315" />
  </defs>
  <sodipodi:namedview
     inkscape:pagecheckerboard="false"
     inkscape:snap-others="true"
     inkscape:snap-smooth-nodes="true"
     inkscape:object-paths="true"
     inkscape:object-nodes="true"
     inkscape:document-rotation="0"
     pagecolor="#092f3b"
     bordercolor="#666666"
     borderopacity="1"
     objecttolerance="10"
     gridtolerance="10"
     guidetolerance="10"
     inkscape:pageopacity="0"
     inkscape:pageshadow="2"
     inkscape:window-width="1440"
     inkscape:window-height="900"
     id="namedview940"
     showgrid="true"
     inkscape:zoom="0.38373619"
     inkscape:cx="713.24179"
     inkscape:cy="749.11639"
     inkscape:window-x="0"
     inkscape:window-y="0"
     inkscape:window-maximized="0"
     inkscape:current-layer="g1070"
     inkscape:snap-intersection-paths="false"
     inkscape:snap-nodes="false"
     inkscape:snap-global="true"
     inkscape:snap-object-midpoints="true"
     fit-margin-top="3"
     fit-margin-left="0"
     fit-margin-right="0"
     fit-margin-bottom="3"
     inkscape:snap-grids="false">
    <inkscape:grid
       type="xygrid"
       id="grid1836"
       originx="5574.3393"
       originy="1542.4281" />
  </sodipodi:namedview>
  <circle
     style="opacity:0;fill:#471b35;fill-opacity:1;stroke:#f21212;stroke-width:10;stroke-opacity:1"
     id="path1709"
     cx="6780.7144"
     cy="208.66701"
     r="1000" />
  <text
     transform="translate(5646.1731,1559.163)"
     style="font-style:normal;font-weight:normal;font-size:400px;line-height:1.25;font-family:sans-serif;white-space:pre;shape-inside:url(#rect4493);fill:#000000;fill-opacity:1;stroke:none;"
     id="text4491"
     xml:space="preserve" />
  <g
     transform="matrix(1.280624,0,0,1.280624,4725.1958,-21.224958)"
     id="g2567">
    <g
       id="g2546"
       transform="matrix(0.97790418,0,0,1,127.13196,0)">
      <path
         sodipodi:arc-type="slice"
         sodipodi:end="3.2409019"
         sodipodi:start="3.2420887"
         sodipodi:ry="330"
         sodipodi:rx="320"
         sodipodi:cy="1853.1482"
         sodipodi:cx="4410.8452"
         sodipodi:type="arc"
         id="path966"
         style="fill:#0b8dbd;fill-opacity:1;stroke:none;stroke-width:10"
         d="m 4092.4598,1820.0403 a 320,330 0 0 1 350.3956,-295.2369 320,330 0 0 1 286.3943,361.2579 320,330 0 0 1 -350.2257,295.4512 320,330 0 0 1 -286.6021,-361.0825 l 318.4233,32.7182 z" />
      <path
         sodipodi:arc-type="slice"
         sodipodi:end="3.2409019"
         sodipodi:start="3.2420887"
         sodipodi:ry="320"
         sodipodi:rx="320"
         sodipodi:cy="825.07562"
         sodipodi:cx="2961.2114"
         sodipodi:type="arc"
         id="path1793"
         style="fill:#fad10d;fill-opacity:1;stroke:none;stroke-width:10"
         d="m 2642.826,792.97099 a 320,320 0 0 1 350.3956,-286.29033 320,320 0 0 1 286.3943,350.31066 320,320 0 0 1 -350.2257,286.49818 320,320 0 0 1 -286.6021,-350.14063 l 318.4233,31.72675 z" />
      <path
         sodipodi:arc-type="slice"
         sodipodi:end="3.2409019"
         sodipodi:start="3.2420887"
         sodipodi:ry="320"
         sodipodi:rx="325"
         sodipodi:cy="1935.3303"
         sodipodi:cx="1348.9449"
         sodipodi:type="arc"
         id="path1834"
         style="fill:#e3290f;fill-opacity:1;stroke:none;stroke-width:10.0778"
         d="m 1025.5847,1903.2257 a 325,320 0 0 1 355.8706,-286.2903 325,320 0 0 1 290.8692,350.3106 325,320 0 0 1 -355.698,286.4982 325,320 0 0 1 -291.0802,-350.1406 l 323.3986,31.7267 z" />
      <g
         transform="translate(1.5724877e-7,40)"
         id="g2503">
        <path
           d="m 1851.0059,3024.4098 c -375,-270 -769.7616,-446.7657 -1664.76159,-459.7657 -181.000002,-3 -207.000002,-10 -174.000002,-47 43,-47 228.000002,-112 406.000002,-142 222,-37 349,-49 614.99999,-59 420,-14 523,-37 625,-139 68,-68 95,-148 94,-276 0,-81 -6,-115 -28,-179 -78,-229 -211,-432 -477,-726.99995 -60,-67 -117,-134.99999 -125,-149.99999 -14,-27 -13,-29 6,-29 56,0 325,178.99999 489,324.99994 188,166 437,440 581,640 52,72 97,132 101,135 3,3 30,40 58,83 99,147 226,409 307,634 101.3286,356.6144 201.4802,724.0628 231,1068 9.6816,66.4044 15.1627,149.4823 26.9416,178.9487 -310.9747,-145.5174 -740.5897,-614.0354 -1071.18,-856.183 z"
           id="path733"
           sodipodi:nodetypes="cccccsccccscccccccc"
           style="fill:#e3290f;stroke:none" />
        <path
           d="m 3780.9227,1386.5662 c 269,-294 568.0983,-523.30053 775.0983,-628.30053 62,-31 92,-38 92,-19 0,13 -33,61 -71,104 -15,17 -71,79.99998 -124,139.99998 -89.4102,95.26665 -178.0171,210.58805 -242,309.99995 -91.5012,133.6638 -169.7774,289.8928 -199,428 -50,248 55,426 287,482 37,9 154,20 279,25 504,23 613,34 810,76 229,49 396,126 361,167 -8,11 -72,15 -283,21 -1286.4174,-116.81 -1854.8098,1072.8098 -2492.9039,1387.5554 0.3181,-1.1158 0.5766,-2.2514 0.9538,-3.3511 237.1403,-691.3945 309.4673,-1866.2834 806.8518,-2489.9037 z"
           id="path754"
           sodipodi:nodetypes="ccsccccccccccsc"
           style="fill:#0b8dbd;stroke:none" />
        <g
           transform="translate(-16.788793,-62.924551)"
           stroke="none"
           fill="#fad10d"
           id="layer104">
          <path
             sodipodi:nodetypes="cc"
             id="path759"
             d="m 2915,3901 c -1958,-2602 -979,-1301 0,0 z" />
          <path
             sodipodi:nodetypes="ccccccccsccccc"
             id="path761"
             d="M 2343,1928 C 2292.7171,1631.8041 2240.3121,1329.6354 2195,1030 2108,468 2110.3617,136 2135.217,79.770931 2161.9275,4.3549807 2223.8886,204.21419 2234,245 c 15,65 53,200 93,335 97,323 255,551 445,644 95,47 163,59 242,45 175,-31 316,-156 574,-508 193,-264 536,-611 603,-611 34,0 -13,48 -61,173 -452,975 -902,2075 -1034.9594,3115.7195 -17.423,94.2806 -66.5921,336.2042 -90.2406,413.2154 -26.8203,66.6974 -47.2007,111.765 -60.801,86.469 C 2872.1614,3236.9309 2777.5787,2520.8613 2343,1928 Z" />
        </g>
      </g>
    </g>
    <g
       transform="translate(55.293092,-256.73435)"
       id="g1689">
      <g
         id="g1671"
         transform="matrix(1.0553671,0,0,1.0553671,-5.3600725,-161.34118)">
        <path
           d="m 96.809776,4674.1902 c 0,-1149 2,-1320 15.000004,-1324 28,-11 225,-30 232,-23 5,4 10,562 13,1239 5,1224 5,1232 25,1230 11,0 68.19022,-46.1902 182.97825,-54.9946 C 1347.7243,5595.953 2192.97,5350 2752.9379,5844.2382 1946.9717,5454.0421 840.19023,5947.8098 100,5990 c 0,-50 -3.190224,-266.8098 -3.190224,-1315.8098 z"
           id="path738"
           sodipodi:nodetypes="scccccccs"
           style="fill:#0b8dbd;stroke:none" />
        <path
           d="m 1373.2887,5455.1714 c -276,37 -431.80983,63.8145 -653.2887,104.8286 -50,10 -180,40 -204.19022,41.1902 -25.37765,-464.991 -17.93982,-923.5941 -18,-1320 -1,-838 3,-1339 9,-1343 5,-3 59,-11 120,-17 95,-10 113,-10 121,3 5,8 9,519 9,1242 0,675 2,1227 3,1227 C 1100,5232.7903 2050.4541,5148.6364 2752.9379,5705.3106 2297.9547,5459.9627 1800,5400 1373.2887,5455.1714 Z"
           id="path748"
           sodipodi:nodetypes="cccccccsccc"
           style="fill:#0b8dbd;stroke:none" />
        <path
           d="m 958.963,5160.8071 c -17,-1 -18,-56 -18,-1006 v -1005 c 78.9164,-0.5144 165.4826,-18.4725 219.037,-17.8058 l -9.037,961.8058 c -8.0331,854.9624 1,907 18,911 127.3061,-23.5887 1081.7287,-1.6329 1583.9749,559.1632 C 2218.5791,5250.8556 1515.0264,4995.3317 958.963,5160.8071 Z"
           id="path752"
           sodipodi:nodetypes="csccsccc"
           style="fill:#0b8dbd;stroke:none" />
      </g>
      <g
         transform="matrix(-1.0553671,0,0,1.0553671,5802.1699,-161.34118)"
         id="g1679">
        <path
           style="fill:#0b8dbd;stroke:none"
           sodipodi:nodetypes="scccccccs"
           id="path1673"
           d="m 96.809776,4674.1902 c 0,-1149 2,-1320 15.000004,-1324 28,-11 225,-30 232,-23 5,4 10,562 13,1239 5,1224 5,1232 25,1230 11,0 68.19022,-46.1902 182.97825,-54.9946 C 1347.7243,5595.953 2192.97,5350 2752.9379,5844.2382 1946.9717,5454.0421 840.19023,5947.8098 100,5990 c 0,-50 -3.190224,-266.8098 -3.190224,-1315.8098 z" />
        <path
           style="fill:#0b8dbd;stroke:none"
           sodipodi:nodetypes="cccccccsccc"
           id="path1675"
           d="m 1373.2887,5455.1714 c -276,37 -431.80983,63.8145 -653.2887,104.8286 -50,10 -180,40 -204.19022,41.1902 -25.37765,-464.991 -17.93982,-923.5941 -18,-1320 -1,-838 3,-1339 9,-1343 5,-3 59,-11 120,-17 95,-10 113,-10 121,3 5,8 9,519 9,1242 0,675 2,1227 3,1227 C 1100,5232.7903 2050.4541,5148.6364 2752.9379,5705.3106 2297.9547,5459.9627 1800,5400 1373.2887,5455.1714 Z" />
        <path
           style="fill:#0b8dbd;stroke:none"
           sodipodi:nodetypes="csccsccc"
           id="path1677"
           d="m 958.963,5160.8118 c -17,-1 -18,-56 -18,-1006 V 3149.8072 c 78.9164,-0.5144 165.4826,-21.3152 219.037,-20.6485 l -9.037,964.6485 c -8.0094,854.9626 1,907.0046 18,911.0046 127.3061,-23.5887 1081.7287,-1.6329 1583.9749,559.1632 C 2218.5791,5250.8603 1515.0264,4995.3364 958.963,5160.8118 Z" />
      </g>
    </g>
  </g>
  <g
     id="g4591"
     transform="translate(4076.0338,1559.163)">
    <text
       xml:space="preserve"
       style="font-style:normal;font-variant:normal;font-weight:normal;font-stretch:normal;font-size:746.667px;line-height:1.25;font-family:AppleGothic;-inkscape-font-specification:'AppleGothic, Normal';font-variant-ligatures:normal;font-variant-caps:normal;font-variant-numeric:normal;font-variant-east-asian:normal;fill:#ffffff;fill-opacity:1;stroke:none;stroke-width:10"
       x="1716.8157"
       y="6584.377"
       id="text4499"><tspan
         sodipodi:role="line"
         x="1716.8157"
         y="6584.377"
         style="font-style:normal;font-variant:normal;font-weight:normal;font-stretch:normal;font-size:746.667px;font-family:AppleGothic;-inkscape-font-specification:'AppleGothic, Normal';font-variant-ligatures:normal;font-variant-caps:normal;font-variant-numeric:normal;font-variant-east-asian:normal;fill:#ffffff;fill-opacity:1;stroke-width:10"
         id="tspan4501" /></text>
  </g>
  <g
     aria-label=" مركز الموارد اليمني الأمريكي"
     transform="matrix(0.91171499,0,0,0.94625788,-72.14956,1852.4181)"
     id="text4507"
     style="font-style:normal;font-variant:normal;font-weight:bold;font-stretch:normal;font-size:1297.21px;line-height:1.25;font-family:'Droid Arabic Kufi';-inkscape-font-specification:'Droid Arabic Kufi Bold';font-variant-ligatures:normal;font-variant-caps:normal;font-variant-numeric:normal;font-variant-east-asian:normal;fill:#e3290f;fill-opacity:1;stroke:none;stroke-width:10.2411">
    <path
       d="m 17663.757,8310.9562 q -34.837,-79.8088 -34.837,-178.6197 0,-56.3729 19.002,-121.6134 19.002,-65.2406 46.872,-112.1124 62.707,-36.104 133.015,-55.1061 70.941,-19.0021 124.147,-19.0021 88.676,0 160.884,38.0042 72.841,38.0042 112.746,107.6785 39.904,69.041 39.904,160.8845 0,98.8109 -46.238,174.8193 -45.605,76.0084 -127.314,118.4464 -81.709,42.438 -180.52,42.438 h -393.977 q -6.334,0 -6.334,-6.334 v -144.4159 q 0,-5.0673 6.334,-5.0673 z m 144.416,-151.3834 q 0,65.874 29.77,151.3834 h 48.772 q 78.542,0 131.115,-52.5724 53.205,-52.5725 53.205,-127.3141 0,-69.041 -33.57,-109.5788 -33.57,-41.1712 -89.31,-41.1712 -58.273,0 -120.98,36.104 -19.002,68.4075 -19.002,143.1491 z"
       style="font-style:normal;font-variant:normal;font-weight:bold;font-stretch:normal;font-size:1297.21px;font-family:'Droid Arabic Kufi';-inkscape-font-specification:'Droid Arabic Kufi Bold';font-variant-ligatures:normal;font-variant-caps:normal;font-variant-numeric:normal;font-variant-east-asian:normal;fill:#e3290f;fill-opacity:1;stroke-width:10.2411"
       id="path4692" />
    <path
       d="m 17529.474,8310.9562 q 6.335,0 6.335,5.0673 v 144.4159 q 0,6.334 -6.335,6.334 h -168.485 v 20.9023 q 0,133.6481 -74.108,212.1902 -73.475,78.542 -196.988,78.542 -66.508,0 -122.247,-15.8351 -55.106,-15.8351 -116.546,-57.0063 l 77.908,-126.0473 q 34.204,21.5357 60.173,29.77 26.603,8.2342 63.341,8.2342 51.939,0 83.609,-39.9044 31.67,-39.271 31.67,-99.4443 v -653.6722 h 193.188 v 486.4537 z"
       style="font-style:normal;font-variant:normal;font-weight:bold;font-stretch:normal;font-size:1297.21px;font-family:'Droid Arabic Kufi';-inkscape-font-specification:'Droid Arabic Kufi Bold';font-variant-ligatures:normal;font-variant-caps:normal;font-variant-numeric:normal;font-variant-east-asian:normal;fill:#e3290f;fill-opacity:1;stroke-width:10.2411"
       id="path4694" />
    <path
       d="m 16106.216,8466.7734 q -6.334,0 -6.334,-6.334 v -144.4159 q 0,-5.0673 6.334,-5.0673 h 507.356 v -208.3897 q 0,-78.542 -53.839,-120.3466 -53.839,-41.8046 -152.65,-41.8046 h -220.424 v -140.6155 q 68.407,-145.0494 193.188,-255.2616 125.413,-110.8455 290.732,-169.7521 l 70.941,173.5526 q -112.746,34.2037 -210.923,100.7111 -98.178,66.5073 -143.15,135.5483 h 49.406 q 369.907,0 369.907,293.2657 v 388.9096 z"
       style="font-style:normal;font-variant:normal;font-weight:bold;font-stretch:normal;font-size:1297.21px;font-family:'Droid Arabic Kufi';-inkscape-font-specification:'Droid Arabic Kufi Bold';font-variant-ligatures:normal;font-variant-caps:normal;font-variant-numeric:normal;font-variant-east-asian:normal;fill:#e3290f;fill-opacity:1;stroke-width:10.2411"
       id="path4696" />
    <path
       d="m 16118.251,8310.9562 q 6.334,0 6.334,5.0673 v 144.4159 q 0,6.334 -6.334,6.334 h -168.485 v 20.9023 q 0,133.6481 -74.109,212.1902 -73.474,78.542 -196.988,78.542 -66.507,0 -122.247,-15.8351 -55.106,-15.8351 -116.546,-57.0063 l 77.909,-126.0473 q 34.203,21.5357 60.173,29.77 26.603,8.2342 63.34,8.2342 51.939,0 83.609,-39.9044 31.671,-39.271 31.671,-99.4443 v -653.6722 h 193.188 v 486.4537 z m -248.928,-597.9327 q -40.537,0 -63.973,-24.7027 -23.436,-25.3362 -23.436,-68.4076 0,-43.7048 22.802,-68.4075 23.436,-25.3362 64.607,-25.3362 39.271,0 62.074,24.7028 23.436,24.7027 23.436,69.0409 0,43.0714 -24.07,68.4076 -23.435,24.7027 -61.44,24.7027 z"
       style="font-style:normal;font-variant:normal;font-weight:bold;font-stretch:normal;font-size:1297.21px;font-family:'Droid Arabic Kufi';-inkscape-font-specification:'Droid Arabic Kufi Bold';font-variant-ligatures:normal;font-variant-caps:normal;font-variant-numeric:normal;font-variant-east-asian:normal;fill:#e3290f;fill-opacity:1;stroke-width:10.2411"
       id="path4698" />
    <path
       d="m 14727.297,7481.1979 h 193.188 v 985.5755 h -193.188 z"
       style="font-style:normal;font-variant:normal;font-weight:bold;font-stretch:normal;font-size:1297.21px;font-family:'Droid Arabic Kufi';-inkscape-font-specification:'Droid Arabic Kufi Bold';font-variant-ligatures:normal;font-variant-caps:normal;font-variant-numeric:normal;font-variant-east-asian:normal;fill:#e3290f;fill-opacity:1;stroke-width:10.2411"
       id="path4700" />
    <path
       d="m 14112.263,8466.7734 q -6.334,0 -6.334,-6.334 v -144.4159 q 0,-5.0673 6.334,-5.0673 h 162.151 v -829.7583 h 193.188 v 985.5755 z"
       style="font-style:normal;font-variant:normal;font-weight:bold;font-stretch:normal;font-size:1297.21px;font-family:'Droid Arabic Kufi';-inkscape-font-specification:'Droid Arabic Kufi Bold';font-variant-ligatures:normal;font-variant-caps:normal;font-variant-numeric:normal;font-variant-east-asian:normal;fill:#e3290f;fill-opacity:1;stroke-width:10.2411"
       id="path4702" />
    <path
       d="m 13412.353,8310.9562 q -34.837,-79.8088 -34.837,-178.6197 0,-56.3729 19.002,-121.6134 19.002,-65.2406 46.872,-112.1124 62.706,-36.104 133.014,-55.1061 70.941,-19.0021 124.147,-19.0021 88.677,0 160.885,38.0042 72.841,38.0042 112.745,107.6785 39.905,69.041 39.905,160.8845 0,70.9412 -24.069,133.6481 23.435,25.3361 53.205,36.104 30.404,10.1344 76.009,10.1344 h 6.967 q 6.334,0 6.334,5.0673 v 144.4159 q 0,6.334 -6.334,6.334 h -6.967 q -68.408,0 -119.08,-19.0021 -50.039,-19.6355 -95.01,-67.7741 -49.406,43.0714 -113.38,65.2405 -63.973,21.5357 -131.748,21.5357 h -393.976 q -6.334,0 -6.334,-6.334 v -144.4159 q 0,-5.0673 6.334,-5.0673 z m 144.416,-151.3834 q 0,65.874 29.77,151.3834 h 48.772 q 78.542,0 131.114,-52.5724 53.206,-52.5725 53.206,-127.3141 0,-69.041 -33.57,-109.5788 -33.571,-41.1712 -89.31,-41.1712 -58.273,0 -120.98,36.104 -19.002,68.4075 -19.002,143.1491 z"
       style="font-style:normal;font-variant:normal;font-weight:bold;font-stretch:normal;font-size:1297.21px;font-family:'Droid Arabic Kufi';-inkscape-font-specification:'Droid Arabic Kufi Bold';font-variant-ligatures:normal;font-variant-caps:normal;font-variant-numeric:normal;font-variant-east-asian:normal;fill:#e3290f;fill-opacity:1;stroke-width:10.2411"
       id="path4704" />
    <path
       d="m 13278.705,8310.9562 q 6.334,0 6.334,5.0673 v 144.4159 q 0,6.334 -6.334,6.334 h -162.151 q 0,148.2164 -89.943,229.9254 -89.31,81.7091 -252.728,81.7091 -88.043,0 -152.651,-13.9349 -63.973,-13.3015 -123.513,-48.7721 l 75.375,-141.2489 q 52.572,27.2363 99.444,38.0042 46.872,11.4013 97.544,11.4013 73.475,0 113.379,-40.5379 39.905,-39.9044 39.905,-110.2121 v -6.3341 h -128.581 q -138.715,0 -213.457,-78.542 -74.742,-78.542 -74.742,-223.5913 0,-102.6114 51.306,-179.8866 51.306,-77.9086 145.049,-119.0798 93.744,-41.1712 216.624,-41.1712 h 196.989 v 486.4537 z m -355.339,0 v -330.6365 h -41.805 q -82.976,0 -129.848,46.8718 -46.238,46.8719 -46.238,132.3813 0,77.9086 31.67,114.646 31.67,36.7374 96.911,36.7374 z"
       style="font-style:normal;font-variant:normal;font-weight:bold;font-stretch:normal;font-size:1297.21px;font-family:'Droid Arabic Kufi';-inkscape-font-specification:'Droid Arabic Kufi Bold';font-variant-ligatures:normal;font-variant-caps:normal;font-variant-numeric:normal;font-variant-east-asian:normal;fill:#e3290f;fill-opacity:1;stroke-width:10.2411"
       id="path4706" />
    <path
       d="m 12089.806,7481.1979 h 193.188 v 985.5755 h -193.188 z"
       style="font-style:normal;font-variant:normal;font-weight:bold;font-stretch:normal;font-size:1297.21px;font-family:'Droid Arabic Kufi';-inkscape-font-specification:'Droid Arabic Kufi Bold';font-variant-ligatures:normal;font-variant-caps:normal;font-variant-numeric:normal;font-variant-east-asian:normal;fill:#e3290f;fill-opacity:1;stroke-width:10.2411"
       id="path4708" />
    <path
       d="m 11579.283,8778.4079 q -66.507,0 -122.247,-15.8351 -55.106,-15.8351 -116.546,-57.0063 l 77.909,-126.0473 q 34.204,21.5357 60.173,29.77 26.603,8.2342 63.34,8.2342 51.939,0 83.61,-39.9044 31.67,-39.271 31.67,-99.4443 v -653.6722 h 193.188 v 663.1732 q 0,133.6481 -74.108,212.1902 -73.475,78.542 -196.989,78.542 z"
       style="font-style:normal;font-variant:normal;font-weight:bold;font-stretch:normal;font-size:1297.21px;font-family:'Droid Arabic Kufi';-inkscape-font-specification:'Droid Arabic Kufi Bold';font-variant-ligatures:normal;font-variant-caps:normal;font-variant-numeric:normal;font-variant-east-asian:normal;fill:#e3290f;fill-opacity:1;stroke-width:10.2411"
       id="path4710" />
    <path
       d="m 10677.95,8310.9562 h 433.248 q -26.603,-119.7132 -65.24,-193.188 -38.004,-74.1082 -97.544,-127.314 -58.907,-53.8393 -144.416,-89.3099 l 72.841,-181.7868 q 173.553,69.6744 278.064,215.3572 105.145,145.0493 152.017,381.3088 v 150.7499 h -628.97 z"
       style="font-style:normal;font-variant:normal;font-weight:bold;font-stretch:normal;font-size:1297.21px;font-family:'Droid Arabic Kufi';-inkscape-font-specification:'Droid Arabic Kufi Bold';font-variant-ligatures:normal;font-variant-caps:normal;font-variant-numeric:normal;font-variant-east-asian:normal;fill:#e3290f;fill-opacity:1;stroke-width:10.2411"
       id="path4712" />
    <path
       d="m 9855.1597,7481.1979 h 193.1883 v 985.5755 h -193.1883 z"
       style="font-style:normal;font-variant:normal;font-weight:bold;font-stretch:normal;font-size:1297.21px;font-family:'Droid Arabic Kufi';-inkscape-font-specification:'Droid Arabic Kufi Bold';font-variant-ligatures:normal;font-variant-caps:normal;font-variant-numeric:normal;font-variant-east-asian:normal;fill:#e3290f;fill-opacity:1;stroke-width:10.2411"
       id="path4714" />
    <path
       d="m 9240.1255,8466.7734 q -6.3341,0 -6.3341,-6.334 v -144.4159 q 0,-5.0673 6.3341,-5.0673 h 162.1512 v -829.7583 h 193.188 v 985.5755 z"
       style="font-style:normal;font-variant:normal;font-weight:bold;font-stretch:normal;font-size:1297.21px;font-family:'Droid Arabic Kufi';-inkscape-font-specification:'Droid Arabic Kufi Bold';font-variant-ligatures:normal;font-variant-caps:normal;font-variant-numeric:normal;font-variant-east-asian:normal;fill:#e3290f;fill-opacity:1;stroke-width:10.2411"
       id="path4716" />
    <path
       d="m 8664.9946,8466.7734 q -6.334,0 -6.334,-6.334 v -144.4159 q 0,-5.0673 6.334,-5.0673 h 200.7889 v -486.4537 h 193.188 v 486.4537 h 195.0882 q 6.334,0 6.334,5.0673 v 144.4159 q 0,6.334 -6.334,6.334 z m 173.5525,324.3025 q -39.9044,0 -63.3403,-25.3361 -23.4359,-24.7027 -23.4359,-67.7742 0,-43.7048 22.8025,-69.0409 23.4359,-24.7027 63.9737,-24.7027 39.9044,0 62.7069,24.7027 22.8026,24.7027 22.8026,69.0409 0,44.3383 -23.436,68.4076 -23.4359,24.7027 -62.0735,24.7027 z m 220.4244,0 q -39.9044,0 -63.3404,-25.3361 -23.4359,-24.7027 -23.4359,-67.7742 0,-43.7048 22.8025,-69.0409 23.436,-24.7027 63.9738,-24.7027 40.5378,0 63.3403,24.7027 22.8025,25.3361 22.8025,69.0409 0,43.0715 -24.0693,67.7742 -23.4359,25.3361 -62.0735,25.3361 z"
       style="font-style:normal;font-variant:normal;font-weight:bold;font-stretch:normal;font-size:1297.21px;font-family:'Droid Arabic Kufi';-inkscape-font-specification:'Droid Arabic Kufi Bold';font-variant-ligatures:normal;font-variant-caps:normal;font-variant-numeric:normal;font-variant-east-asian:normal;fill:#e3290f;fill-opacity:1;stroke-width:10.2411"
       id="path4718" />
    <path
       d="m 7965.0842,8310.9562 q -34.8372,-79.8088 -34.8372,-178.6197 0,-56.3729 19.0021,-121.6134 19.0021,-65.2406 46.8719,-112.1124 62.7069,-36.104 133.0147,-55.1061 70.9411,-19.0021 124.147,-19.0021 88.6765,0 160.8845,38.0042 72.8413,38.0042 112.7457,107.6785 39.9044,69.041 39.9044,160.8845 0,70.9412 -24.0693,133.6481 23.4359,25.3361 53.2059,36.104 30.4034,10.1344 76.0084,10.1344 h 6.9674 q 6.3341,0 6.3341,5.0673 v 144.4159 q 0,6.334 -6.3341,6.334 h -6.9674 q -68.4076,0 -119.0798,-19.0021 -50.0389,-19.6355 -95.0105,-67.7741 -49.4055,43.0714 -113.3792,65.2405 -63.9737,21.5357 -131.7479,21.5357 H 7818.768 q -6.334,0 -6.334,-6.334 v -144.4159 q 0,-5.0673 6.334,-5.0673 z m 144.416,-151.3834 q 0,65.874 29.7699,151.3834 h 48.7721 q 78.542,0 131.1145,-52.5724 53.2058,-52.5725 53.2058,-127.3141 0,-69.041 -33.5703,-109.5788 -33.5704,-41.1712 -89.3099,-41.1712 -58.2731,0 -120.98,36.104 -19.0021,68.4075 -19.0021,143.1491 z"
       style="font-style:normal;font-variant:normal;font-weight:bold;font-stretch:normal;font-size:1297.21px;font-family:'Droid Arabic Kufi';-inkscape-font-specification:'Droid Arabic Kufi Bold';font-variant-ligatures:normal;font-variant-caps:normal;font-variant-numeric:normal;font-variant-east-asian:normal;fill:#e3290f;fill-opacity:1;stroke-width:10.2411"
       id="path4720" />
    <path
       d="m 7830.8025,8310.9562 q 6.3341,0 6.3341,5.0673 v 144.4159 q 0,6.334 -6.3341,6.334 H 7306.978 q -6.334,0 -6.334,-6.334 v -144.4159 q 0,-5.0673 6.334,-5.0673 h 162.1513 v -486.4537 h 193.188 v 486.4537 z m -266.6628,-597.9327 q -40.5378,0 -63.9737,-24.7027 -23.4359,-25.3362 -23.4359,-68.4076 0,-43.7048 22.8025,-68.4075 23.4359,-25.3362 64.6071,-25.3362 39.2711,0 62.0736,24.7028 23.4359,24.7027 23.4359,69.0409 0,43.0714 -24.0693,68.4076 -23.436,24.7027 -61.4402,24.7027 z"
       style="font-style:normal;font-variant:normal;font-weight:bold;font-stretch:normal;font-size:1297.21px;font-family:'Droid Arabic Kufi';-inkscape-font-specification:'Droid Arabic Kufi Bold';font-variant-ligatures:normal;font-variant-caps:normal;font-variant-numeric:normal;font-variant-east-asian:normal;fill:#e3290f;fill-opacity:1;stroke-width:10.2411"
       id="path4722" />
    <path
       d="m 7312.045,8466.7734 q -69.6744,0 -119.0798,-19.6355 -48.7721,-19.6355 -101.3445,-75.375 -13.9349,-14.5682 -65.874,-87.4096 -61.4401,-85.5095 -96.2773,-114.0126 -34.8372,-29.1366 -65.8739,-29.1366 -20.9023,0 -52.5725,21.5358 -31.6702,21.5357 -53.2059,50.0388 -21.5357,28.5032 -21.5357,48.7721 0,26.6029 22.1691,46.2384 22.8025,19.6355 71.5746,36.104 82.9758,27.8697 122.2468,53.2059 39.9044,25.3361 59.5399,61.4401 20.2689,36.104 20.2689,84.876 0,114.646 -93.1102,174.8193 -92.4769,60.1734 -279.3309,60.1734 h -305.9338 q -74.1082,0 -134.2815,-38.0042 -60.1733,-37.3708 -93.7437,-105.145 -32.937,-67.7741 -32.937,-152.6502 0,-126.6806 41.8047,-250.8277 h 172.2857 q -16.4685,53.8393 -22.1692,101.9779 -5.0672,48.1387 -5.0672,120.3467 0,44.3382 21.5357,83.6092 22.1691,39.9044 58.2731,62.0735 36.104,22.8025 74.7416,22.8025 h 224.2248 q 105.1449,0 143.1491,-15.835 38.6376,-15.8351 38.6376,-53.2059 0,-22.1691 -21.5357,-38.0042 -20.9023,-15.2017 -67.7741,-27.8698 -108.9454,-27.8697 -151.3834,-74.1081 -42.438,-46.2385 -42.438,-124.7805 0,-67.7741 48.772,-141.8823 49.4055,-74.7416 127.3141,-125.4139 77.9086,-51.3057 149.4832,-51.3057 41.8046,0 77.2752,16.4685 35.4706,15.8351 68.4075,48.7721 33.5704,32.3036 108.9454,139.9821 59.5399,85.5095 95.6439,110.8456 36.7374,24.7027 79.1754,24.7027 h 6.334 q 6.9675,0 6.9675,5.0673 v 144.4159 q 0,6.334 -6.9675,6.334 z m -857.6281,632.1365 q -39.9044,0 -63.3403,-25.3361 -23.4359,-24.7027 -23.4359,-67.7742 0,-43.7048 22.8025,-69.0409 23.4359,-24.7027 63.9737,-24.7027 39.9044,0 62.707,24.7027 22.8025,24.7027 22.8025,69.0409 0,44.3383 -23.4359,68.4076 -23.436,24.7027 -62.0736,24.7027 z m 220.4244,0 q -39.9044,0 -63.3404,-25.3361 -23.4359,-24.7027 -23.4359,-67.7742 0,-43.7048 22.8025,-69.0409 23.436,-24.7027 63.9738,-24.7027 40.5378,0 63.3403,24.7027 22.8025,25.3361 22.8025,69.0409 0,43.0715 -24.0693,67.7742 -23.4359,25.3361 -62.0735,25.3361 z"
       style="font-style:normal;font-variant:normal;font-weight:bold;font-stretch:normal;font-size:1297.21px;font-family:'Droid Arabic Kufi';-inkscape-font-specification:'Droid Arabic Kufi Bold';font-variant-ligatures:normal;font-variant-caps:normal;font-variant-numeric:normal;font-variant-east-asian:normal;fill:#e3290f;fill-opacity:1;stroke-width:10.2411"
       id="path4724" />
    <path
       d="m 5243.9839,7481.1979 h 193.188 v 985.5755 h -193.188 z"
       style="font-style:normal;font-variant:normal;font-weight:bold;font-stretch:normal;font-size:1297.21px;font-family:'Droid Arabic Kufi';-inkscape-font-specification:'Droid Arabic Kufi Bold';font-variant-ligatures:normal;font-variant-caps:normal;font-variant-numeric:normal;font-variant-east-asian:normal;fill:#e3290f;fill-opacity:1;stroke-width:10.2411"
       id="path4726" />
    <path
       d="m 4245.1066,8310.9562 h 234.9927 l -167.2185,-654.939 h 202.0556 l 154.5504,654.939 h 8.8677 q 64.6071,0 94.3771,-35.4706 30.4033,-36.1039 30.4033,-114.646 v -679.6417 h 193.188 v 694.8434 q 0,132.3813 -73.4747,211.5567 -72.8414,79.1754 -201.4223,79.1754 h -476.3193 z m 12.6681,-796.8213 74.1082,-12.0347 q -25.3361,-12.6681 -41.8046,-34.8372 -16.4685,-22.8025 -16.4685,-53.2058 0,-55.7395 38.6376,-86.7763 38.6376,-31.0368 103.8781,-31.0368 63.9738,0 106.4118,23.436 l -25.9696,65.8739 q -32.9369,-16.4685 -70.3077,-16.4685 -27.8698,0 -44.9717,16.4685 -17.1018,16.4685 -17.1018,45.605 0,20.2689 11.4012,35.4706 11.4013,15.2017 27.8698,22.8025 l 22.8025,-3.8004 q 65.8739,-10.1344 105.1449,-13.3014 v 75.3749 q -46.2384,3.1671 -153.2836,15.8351 -106.4117,12.6681 -120.3466,16.4685 z"
       style="font-style:normal;font-variant:normal;font-weight:bold;font-stretch:normal;font-size:1297.21px;font-family:'Droid Arabic Kufi';-inkscape-font-specification:'Droid Arabic Kufi Bold';font-variant-ligatures:normal;font-variant-caps:normal;font-variant-numeric:normal;font-variant-east-asian:normal;fill:#e3290f;fill-opacity:1;stroke-width:10.2411"
       id="path4728" />
    <path
       d="m 3513.5259,8310.9562 q -34.8372,-79.8088 -34.8372,-178.6197 0,-56.3729 19.0021,-121.6134 19.0021,-65.2406 46.8718,-112.1124 62.7069,-36.104 133.0147,-55.1061 70.9412,-19.0021 124.1471,-19.0021 88.6764,0 160.8844,38.0042 72.8414,38.0042 112.7458,107.6785 39.9044,69.041 39.9044,160.8845 0,98.8109 -46.2384,174.8193 -45.6051,76.0084 -127.3141,118.4464 -81.709,42.438 -180.5199,42.438 h -393.9769 q -6.334,0 -6.334,-6.334 v -144.4159 q 0,-5.0673 6.334,-5.0673 z m 144.4159,-151.3834 q 0,65.874 29.77,151.3834 h 48.772 q 78.542,0 131.1145,-52.5724 53.2059,-52.5725 53.2059,-127.3141 0,-69.041 -33.5704,-109.5788 -33.5704,-41.1712 -89.3099,-41.1712 -58.2731,0 -120.98,36.104 -19.0021,68.4075 -19.0021,143.1491 z"
       style="font-style:normal;font-variant:normal;font-weight:bold;font-stretch:normal;font-size:1297.21px;font-family:'Droid Arabic Kufi';-inkscape-font-specification:'Droid Arabic Kufi Bold';font-variant-ligatures:normal;font-variant-caps:normal;font-variant-numeric:normal;font-variant-east-asian:normal;fill:#e3290f;fill-opacity:1;stroke-width:10.2411"
       id="path4730" />
    <path
       d="m 3379.244,8310.9562 q 6.334,0 6.334,5.0673 v 144.4159 q 0,6.334 -6.334,6.334 h -168.4853 v 20.9023 q 0,133.6481 -74.1082,212.1902 -73.4747,78.542 -196.9884,78.542 -66.5073,0 -122.2468,-15.8351 -55.1061,-15.8351 -116.5462,-57.0063 l 77.9086,-126.0473 q 34.2037,21.5357 60.1733,29.77 26.6029,8.2342 63.3403,8.2342 51.9391,0 83.6093,-39.9044 31.6701,-39.271 31.6701,-99.4443 v -653.6722 h 193.188 v 486.4537 z"
       style="font-style:normal;font-variant:normal;font-weight:bold;font-stretch:normal;font-size:1297.21px;font-family:'Droid Arabic Kufi';-inkscape-font-specification:'Droid Arabic Kufi Bold';font-variant-ligatures:normal;font-variant-caps:normal;font-variant-numeric:normal;font-variant-east-asian:normal;fill:#e3290f;fill-opacity:1;stroke-width:10.2411"
       id="path4732" />
    <path
       d="m 2222.0163,8466.7734 q -6.334,0 -6.334,-6.334 v -144.4159 q 0,-5.0673 6.334,-5.0673 h 226.7584 v -486.4537 h 193.188 v 642.2709 z m 104.5116,324.3025 q -39.9044,0 -63.3403,-25.3361 -23.436,-24.7027 -23.436,-67.7742 0,-43.7048 22.8026,-69.0409 23.4359,-24.7027 63.9737,-24.7027 39.9044,0 62.7069,24.7027 22.8025,24.7027 22.8025,69.0409 0,44.3383 -23.4359,68.4076 -23.4359,24.7027 -62.0735,24.7027 z m 220.4243,0 q -39.9044,0 -63.3403,-25.3361 -23.4359,-24.7027 -23.4359,-67.7742 0,-43.7048 22.8025,-69.0409 23.4359,-24.7027 63.9737,-24.7027 40.5378,0 63.3404,24.7027 22.8025,25.3361 22.8025,69.0409 0,43.0715 -24.0693,67.7742 -23.436,25.3361 -62.0736,25.3361 z"
       style="font-style:normal;font-variant:normal;font-weight:bold;font-stretch:normal;font-size:1297.21px;font-family:'Droid Arabic Kufi';-inkscape-font-specification:'Droid Arabic Kufi Bold';font-variant-ligatures:normal;font-variant-caps:normal;font-variant-numeric:normal;font-variant-east-asian:normal;fill:#e3290f;fill-opacity:1;stroke-width:10.2411"
       id="path4734" />
    <path
       d="m 1365.6551,8466.7734 q -6.334,0 -6.334,-6.334 v -144.4159 q 0,-5.0673 6.334,-5.0673 h 507.3561 v -208.3897 q 0,-78.542 -53.8393,-120.3466 -53.8393,-41.8046 -152.6502,-41.8046 h -220.4243 v -140.6155 q 68.4075,-145.0494 193.188,-255.2616 125.4138,-110.8455 290.7321,-169.7521 l 70.9411,173.5526 q -112.7457,34.2037 -210.9233,100.7111 -98.1775,66.5073 -143.1491,135.5483 h 49.4055 q 369.9075,0 369.9075,293.2657 v 233.0924 h 168.4853 q 6.334,0 6.334,5.0673 v 144.4159 q 0,6.334 -6.334,6.334 z"
       style="font-style:normal;font-variant:normal;font-weight:bold;font-stretch:normal;font-size:1297.21px;font-family:'Droid Arabic Kufi';-inkscape-font-specification:'Droid Arabic Kufi Bold';font-variant-ligatures:normal;font-variant-caps:normal;font-variant-numeric:normal;font-variant-east-asian:normal;fill:#e3290f;fill-opacity:1;stroke-width:10.2411"
       id="path4736" />
    <path
       d="m 1370.7224,8466.7734 q -69.6744,0 -119.0799,-19.6355 -48.772,-19.6355 -101.3445,-75.375 -13.9349,-14.5682 -65.8739,-87.4096 -61.4401,-85.5095 -96.27732,-114.0126 -34.83719,-29.1366 -65.87395,-29.1366 -20.90231,0 -52.57247,21.5358 -31.67017,21.5357 -53.20588,50.0388 -21.53571,28.5032 -21.53571,48.7721 0,26.6029 22.16911,46.2384 22.80252,19.6355 71.57458,36.104 82.97583,27.8697 122.24684,53.2059 39.9044,25.3361 59.5399,61.4401 20.2689,36.104 20.2689,84.876 0,114.646 -93.11028,174.8193 -92.47688,60.1734 -279.33085,60.1734 h -305.9338 q -74.10818,0 -134.2815,-38.0042 -60.17331,-37.3708 -93.74368,-105.145 -32.93698,-67.7741 -32.93698,-152.6502 0,-126.6806 41.80462,-250.8277 h 172.2857 q -16.46849,53.8393 -22.16912,101.9779 -5.06722,48.1387 -5.06722,120.3467 0,44.3382 21.53571,83.6092 22.16912,39.9044 58.2731,62.0735 36.10399,22.8025 74.74159,22.8025 h 224.22477 q 105.14495,0 143.14915,-15.835 38.6376,-15.8351 38.6376,-53.2059 0,-22.1691 -21.53571,-38.0042 -20.90231,-15.2017 -67.77416,-27.8698 -108.94536,-27.8697 -151.38338,-74.1081 -42.43803,-46.2385 -42.43803,-124.7805 0,-67.7741 48.77206,-141.8823 49.40546,-74.7416 127.31406,-125.4139 77.90861,-51.3057 149.48318,-51.3057 41.80462,0 77.27517,16.4685 35.4706,15.8351 68.4076,48.7721 33.5704,32.3036 108.9454,139.9821 59.5399,85.5095 95.6439,110.8456 36.7373,24.7027 79.1754,24.7027 h 6.334 q 6.9674,0 6.9674,5.0673 v 144.4159 q 0,6.334 -6.9674,6.334 z m -857.6281,632.1365 q -39.90441,0 -63.34033,-25.3361 -23.43592,-24.7027 -23.43592,-67.7742 0,-43.7048 22.80252,-69.0409 23.43592,-24.7027 63.97373,-24.7027 39.90441,0 62.70693,24.7027 22.80251,24.7027 22.80251,69.0409 0,44.3383 -23.43592,68.4076 -23.43592,24.7027 -62.07352,24.7027 z m 220.42435,0 q -39.90441,0 -63.34033,-25.3361 -23.43592,-24.7027 -23.43592,-67.7742 0,-43.7048 22.80251,-69.0409 23.43593,-24.7027 63.97374,-24.7027 40.53781,0 63.34033,24.7027 22.80252,25.3361 22.80252,69.0409 0,43.0715 -24.06933,67.7742 -23.43592,25.3361 -62.07352,25.3361 z"
       style="font-style:normal;font-variant:normal;font-weight:bold;font-stretch:normal;font-size:1297.21px;font-family:'Droid Arabic Kufi';-inkscape-font-specification:'Droid Arabic Kufi Bold';font-variant-ligatures:normal;font-variant-caps:normal;font-variant-numeric:normal;font-variant-east-asian:normal;fill:#e3290f;fill-opacity:1;stroke-width:10.2411"
       id="path4738" />
  </g>
  <text
     xml:space="preserve"
     id="text1103"
     style="font-style:normal;font-weight:normal;font-size:400px;line-height:1.25;font-family:sans-serif;white-space:pre;shape-inside:url(#rect1105);fill:#000000;fill-opacity:1;stroke:none;"
     transform="translate(195.28573,1222.7299)" />
  <g
     aria-label="YEMEN-AMERICAN RESOURCE CENTER"
     transform="matrix(1.8003385,0,0,2.0151834,-214.6399,-4400.2376)"
     id="text1109"
     style="font-style:normal;font-variant:normal;font-weight:bold;font-stretch:normal;font-size:414.985px;line-height:1.25;font-family:'Droid Arabic Kufi';-inkscape-font-specification:'Droid Arabic Kufi, Bold';font-variant-ligatures:normal;font-variant-caps:normal;font-variant-numeric:normal;font-variant-east-asian:normal;white-space:pre;shape-inside:url(#rect1111);fill:#ffffff;fill-opacity:1;stroke:none">
    <g
       transform="matrix(0.9762644,0,0,0.9762644,2.8298051,142.55757)"
       id="g1070">
      <path
         id="path1159"
         style="font-style:normal;font-variant:normal;font-weight:bold;font-stretch:normal;font-size:517.62199999999995725px;font-family:'Droid Arabic Kufi';-inkscape-font-specification:'Droid Arabic Kufi, Bold';font-variant-ligatures:normal;font-variant-caps:normal;font-variant-numeric:normal;font-variant-east-asian:normal;fill:#0b8dbd;fill-opacity:1"
         d="m 496.06495,6013.395 -138.75707,230.7563 v 145.5812 H 260.25375 V 6248.7007 L 119.22197,6013.395 h 110.19687 l 81.38393,145.5812 78.60374,-145.5812 z" />
      <path
         id="path1161"
         style="font-style:normal;font-variant:normal;font-weight:bold;font-stretch:normal;font-size:414.09800000000001319px;font-family:'Droid Arabic Kufi';-inkscape-font-specification:'Droid Arabic Kufi, Bold';font-variant-ligatures:normal;font-variant-caps:normal;font-variant-numeric:normal;font-variant-east-asian:normal;fill:#0b8dbd;fill-opacity:1"
         d="m 754.26961,6389.7325 h -217.7654 v -301.0703 h 217.7654 v 58.2325 H 613.74319 v 51.9645 h 130.4166 v 58.2325 H 613.74319 V 6331.5 h 140.52642 z" />
      <path
         id="path1163"
         style="font-style:normal;font-variant:normal;font-weight:bold;font-stretch:normal;font-size:414.09800000000001319px;font-family:'Droid Arabic Kufi';-inkscape-font-specification:'Droid Arabic Kufi, Bold';font-variant-ligatures:normal;font-variant-caps:normal;font-variant-numeric:normal;font-variant-east-asian:normal;fill:#0b8dbd;fill-opacity:1"
         d="m 1135.2074,6389.7325 h -77.2389 v -201.5897 l -55.8062,130.821 h -53.58203 l -55.80618,-130.821 v 201.5897 h -73.19505 v -301.0703 h 90.17954 l 67.73576,151.0406 67.53356,-151.0406 h 90.1795 z" />
      <path
         id="path1165"
         style="font-style:normal;font-variant:normal;font-weight:bold;font-stretch:normal;font-size:414.09800000000001319px;font-family:'Droid Arabic Kufi';-inkscape-font-specification:'Droid Arabic Kufi, Bold';font-variant-ligatures:normal;font-variant-caps:normal;font-variant-numeric:normal;font-variant-east-asian:normal;fill:#0b8dbd;fill-opacity:1"
         d="m 1429.6052,6389.7325 h -217.7654 v -301.0703 h 217.7654 v 58.2325 h -140.5264 v 51.9645 h 130.4166 v 58.2325 H 1289.0788 V 6331.5 h 140.5264 z" />
      <path
         id="path1167"
         style="font-style:normal;font-variant:normal;font-weight:bold;font-stretch:normal;font-size:414.09800000000001319px;font-family:'Droid Arabic Kufi';-inkscape-font-specification:'Droid Arabic Kufi, Bold';font-variant-ligatures:normal;font-variant-caps:normal;font-variant-numeric:normal;font-variant-east-asian:normal;fill:#0b8dbd;fill-opacity:1"
         d="m 1768.6884,6389.7325 h -74.8126 l -127.7881,-206.6446 v 206.6446 h -71.1731 v -301.0703 h 92.8081 l 109.7926,172.4734 v -172.4734 h 71.1731 z" />
      <path
         id="path1171"
         style="font-style:normal;font-variant:normal;font-weight:bold;font-stretch:normal;font-size:517.62199999999995725px;font-family:'Droid Arabic Kufi';-inkscape-font-specification:'Droid Arabic Kufi, Bold';font-variant-ligatures:normal;font-variant-caps:normal;font-variant-numeric:normal;font-variant-east-asian:normal;fill:#0b8dbd;fill-opacity:1"
         d="m 2600.4383,6389.7325 h -100.3398 l -26.0328,-76.0763 h -139.5153 l -26.0327,76.0763 h -97.8124 l 139.0098,-376.3375 h 111.7134 z m -149.8779,-145.0757 -46.2523,-134.9659 -46.2524,134.9659 z" />
      <path
         id="path1173"
         style="font-style:normal;font-variant:normal;font-weight:bold;font-stretch:normal;font-size:414.09800000000001319px;font-family:'Droid Arabic Kufi';-inkscape-font-specification:'Droid Arabic Kufi, Bold';font-variant-ligatures:normal;font-variant-caps:normal;font-variant-numeric:normal;font-variant-east-asian:normal;fill:#0b8dbd;fill-opacity:1"
         d="m 2961.0554,6389.7325 h -77.239 v -201.5897 l -55.8062,130.821 h -53.582 l -55.8062,-130.821 v 201.5897 h -73.195 v -301.0703 h 90.1795 l 67.7358,151.0406 67.5335,-151.0406 h 90.1796 z" />
      <path
         id="path1175"
         style="font-style:normal;font-variant:normal;font-weight:bold;font-stretch:normal;font-size:414.09800000000001319px;font-family:'Droid Arabic Kufi';-inkscape-font-specification:'Droid Arabic Kufi, Bold';font-variant-ligatures:normal;font-variant-caps:normal;font-variant-numeric:normal;font-variant-east-asian:normal;fill:#0b8dbd;fill-opacity:1"
         d="m 3255.4531,6389.7325 h -217.7654 v -301.0703 h 217.7654 v 58.2325 h -140.5264 v 51.9645 h 130.4166 v 58.2325 H 3114.9267 V 6331.5 h 140.5264 z" />
      <path
         id="path1177"
         style="font-style:normal;font-variant:normal;font-weight:bold;font-stretch:normal;font-size:414.09800000000001319px;font-family:'Droid Arabic Kufi';-inkscape-font-specification:'Droid Arabic Kufi, Bold';font-variant-ligatures:normal;font-variant-caps:normal;font-variant-numeric:normal;font-variant-east-asian:normal;fill:#0b8dbd;fill-opacity:1"
         d="m 3489.5966,6180.8637 q 0,-11.323 -4.6506,-19.4108 -4.6505,-8.0879 -15.9735,-12.7384 -7.8856,-3.2351 -18.3998,-3.8417 -10.5142,-0.8088 -24.4658,-0.8088 h -28.1053 v 81.0807 h 23.8592 q 18.6021,0 31.1382,-1.8198 12.5362,-1.8197 21.0284,-8.29 8.0879,-6.2681 11.7274,-13.7494 3.8418,-7.6834 3.8418,-20.4218 z m 121.1155,208.8688 h -94.83 l -82.0917,-110.3992 h -35.7888 v 110.3992 h -77.2389 v -301.0703 h 130.2144 q 26.6899,0 45.8985,3.033 19.2087,3.0329 35.991,13.1427 16.9845,10.1098 26.8921,26.2855 10.1098,15.9735 10.1098,40.2371 0,33.3624 -15.5691,54.3908 -15.3669,21.0284 -44.0788,34.98 z" />
      <path
         id="path1179"
         style="font-style:normal;font-variant:normal;font-weight:bold;font-stretch:normal;font-size:414.09800000000001319px;font-family:'Droid Arabic Kufi';-inkscape-font-specification:'Droid Arabic Kufi, Bold';font-variant-ligatures:normal;font-variant-caps:normal;font-variant-numeric:normal;font-variant-east-asian:normal;fill:#0b8dbd;fill-opacity:1"
         d="m 3807.8534,6389.7325 h -176.3151 v -53.3798 h 49.3359 V 6142.042 h -49.3359 v -53.3798 h 176.3151 v 53.3798 h -49.3359 v 194.3107 h 49.3359 z" />
      <path
         id="path1181"
         style="font-style:normal;font-variant:normal;font-weight:bold;font-stretch:normal;font-size:414.09800000000001319px;font-family:'Droid Arabic Kufi';-inkscape-font-specification:'Droid Arabic Kufi, Bold';font-variant-ligatures:normal;font-variant-caps:normal;font-variant-numeric:normal;font-variant-east-asian:normal;fill:#0b8dbd;fill-opacity:1"
         d="m 4007.6235,6395.5962 q -33.5646,0 -62.0743,-9.9076 -28.3075,-9.9077 -48.7293,-29.5207 -20.4218,-19.613 -31.7448,-48.9315 -11.1208,-29.3185 -11.1208,-67.7358 0,-35.7887 10.7164,-64.905 10.7164,-29.1162 31.1382,-49.9424 19.6131,-20.0175 48.5271,-30.9361 29.1163,-10.9186 63.4897,-10.9186 19.0064,0 34.1711,2.2242 15.367,2.0219 28.3075,5.4593 13.5472,3.8417 24.4658,8.6944 11.1208,4.6505 19.4108,8.6945 v 72.9928 h -8.8966 q -5.6615,-4.8527 -14.356,-11.5252 -8.4922,-6.6724 -19.4108,-13.1427 -11.1208,-6.4703 -24.0614,-10.9186 -12.9405,-4.4483 -27.7008,-4.4483 -16.3779,0 -31.1383,5.2571 -14.7603,5.0549 -27.2965,16.9845 -11.9295,11.5251 -19.4108,30.5316 -7.2791,19.0064 -7.2791,46.1007 0,28.3075 7.8857,47.314 8.0878,19.0064 20.2196,29.925 12.334,11.1208 27.4987,15.9735 15.1647,4.6505 29.9251,4.6505 14.1537,0 27.903,-4.2461 13.9516,-4.2461 25.679,-11.5252 9.9076,-5.8637 18.3998,-12.5361 8.4923,-6.6725 13.9516,-11.5252 h 8.0878 v 71.9819 q -11.323,5.0549 -21.635,9.5032 -10.312,4.4483 -21.635,7.6834 -14.7603,4.2462 -27.7009,6.4703 -12.9405,2.2242 -35.5865,2.2242 z" />
      <path
         id="path1183"
         style="font-style:normal;font-variant:normal;font-weight:bold;font-stretch:normal;font-size:414.09800000000001319px;font-family:'Droid Arabic Kufi';-inkscape-font-specification:'Droid Arabic Kufi, Bold';font-variant-ligatures:normal;font-variant-caps:normal;font-variant-numeric:normal;font-variant-east-asian:normal;fill:#0b8dbd;fill-opacity:1"
         d="m 4449.8268,6389.7325 h -80.2719 l -20.8262,-60.8611 h -111.6124 l -20.8262,60.8611 h -78.25 l 111.208,-301.0703 h 89.3707 z m -119.9024,-116.0607 -37.0019,-107.9728 -37.0019,107.9728 z" />
      <path
         id="path1185"
         style="font-style:normal;font-variant:normal;font-weight:bold;font-stretch:normal;font-size:414.09800000000001319px;font-family:'Droid Arabic Kufi';-inkscape-font-specification:'Droid Arabic Kufi, Bold';font-variant-ligatures:normal;font-variant-caps:normal;font-variant-numeric:normal;font-variant-east-asian:normal;fill:#0b8dbd;fill-opacity:1"
         d="m 4767.275,6389.7325 h -74.8127 l -127.788,-206.6446 v 206.6446 h -71.1731 v -301.0703 h 92.8081 l 109.7926,172.4734 v -172.4734 h 71.1731 z" />
      <path
         id="path1187"
         style="font-style:normal;font-variant:normal;font-weight:bold;font-stretch:normal;font-size:517.62199999999995725px;font-family:'Droid Arabic Kufi';-inkscape-font-specification:'Droid Arabic Kufi, Bold';font-variant-ligatures:normal;font-variant-caps:normal;font-variant-numeric:normal;font-variant-east-asian:normal;fill:#0b8dbd;fill-opacity:1"
         d="m 5206.1901,6128.6468 q 0,-14.1538 -5.8131,-24.2636 -5.8131,-10.1098 -19.9669,-15.9229 -9.857,-4.0439 -22.9998,-4.8022 -13.1427,-1.0109 -30.5821,-1.0109 h -35.1316 v 101.3508 h 29.8239 q 23.2526,0 38.9228,-2.2747 15.6702,-2.2748 26.2855,-10.3626 10.1098,-7.8351 14.6592,-17.1867 4.8021,-9.6043 4.8021,-25.5272 z m 151.3944,261.0857 H 5239.047 l -102.6145,-137.9989 h -44.7359 v 137.9989 H 4995.148 V 6013.395 h 162.7678 q 33.3624,0 57.3732,3.7912 24.0107,3.7912 44.9886,16.4284 21.2306,12.6373 33.6151,32.8569 12.6372,19.9668 12.6372,50.2963 0,41.7029 -19.4613,67.9884 -19.2087,26.2855 -55.0985,43.7249 z" />
      <path
         id="path1189"
         style="font-style:normal;font-variant:normal;font-weight:bold;font-stretch:normal;font-size:414.09800000000001319px;font-family:'Droid Arabic Kufi';-inkscape-font-specification:'Droid Arabic Kufi, Bold';font-variant-ligatures:normal;font-variant-caps:normal;font-variant-numeric:normal;font-variant-east-asian:normal;fill:#0b8dbd;fill-opacity:1"
         d="M 5608.7124,6389.7325 H 5390.947 v -301.0703 h 217.7654 v 58.2325 H 5468.186 v 51.9645 h 130.4166 v 58.2325 H 5468.186 V 6331.5 h 140.5264 z" />
      <path
         id="path1191"
         style="font-style:normal;font-variant:normal;font-weight:bold;font-stretch:normal;font-size:414.09800000000001319px;font-family:'Droid Arabic Kufi';-inkscape-font-specification:'Droid Arabic Kufi, Bold';font-variant-ligatures:normal;font-variant-caps:normal;font-variant-numeric:normal;font-variant-east-asian:normal;fill:#0b8dbd;fill-opacity:1"
         d="m 5915.0397,6295.1046 q 0,44.4832 -37.8107,72.3863 -37.6085,27.7009 -102.3114,27.7009 -37.4063,0 -65.3094,-6.4703 -27.7008,-6.6725 -51.9644,-16.7823 v -72.1841 h 8.4922 q 24.0614,19.2087 53.7843,29.5207 29.925,10.312 57.4237,10.312 7.0769,0 18.6021,-1.2132 11.5251,-1.2131 18.8042,-4.0439 8.8966,-3.6395 14.5581,-9.0988 5.8637,-5.4593 5.8637,-16.1757 0,-9.9076 -8.4922,-16.9845 -8.2901,-7.2791 -24.4658,-11.1208 -16.9844,-4.0439 -35.9909,-7.4813 -18.8042,-3.6395 -35.3843,-9.0988 -38.0129,-12.334 -54.7952,-33.3624 -16.5801,-21.2306 -16.5801,-52.571 0,-42.0569 37.6085,-68.5446 37.8107,-26.6899 97.0542,-26.6899 29.7228,0 58.6369,5.8637 29.1163,5.6615 50.3469,14.3559 v 69.3534 h -8.2901 q -18.1976,-14.5582 -44.6853,-24.2636 -26.2856,-9.9076 -53.7842,-9.9076 -9.7055,0 -19.4109,1.4154 -9.5032,1.2132 -18.3999,4.8527 -7.8856,3.0329 -13.5471,9.301 -5.6615,6.0659 -5.6615,13.9516 0,11.9295 9.0988,18.3998 9.0989,6.2681 34.3734,11.5252 16.5801,3.4373 31.7448,6.6725 15.3669,3.2351 32.958,8.8966 34.5756,11.323 50.9535,30.9361 16.5801,19.4108 16.5801,50.549 z" />
      <path
         id="path1193"
         style="font-style:normal;font-variant:normal;font-weight:bold;font-stretch:normal;font-size:414.09800000000001319px;font-family:'Droid Arabic Kufi';-inkscape-font-specification:'Droid Arabic Kufi, Bold';font-variant-ligatures:normal;font-variant-caps:normal;font-variant-numeric:normal;font-variant-east-asian:normal;fill:#0b8dbd;fill-opacity:1"
         d="m 6261.1999,6239.2984 q 0,71.9819 -41.2481,114.4431 -41.248,42.2591 -114.0387,42.2591 -72.5884,0 -113.8365,-42.2591 -41.248,-42.4612 -41.248,-114.4431 0,-72.5884 41.248,-114.6452 41.2481,-42.2591 113.8365,-42.2591 72.3863,0 113.8365,42.2591 41.4503,42.0568 41.4503,114.6452 z m -102.9179,76.228 q 11.323,-13.7493 16.7823,-32.3514 5.4593,-18.8042 5.4593,-44.0787 0,-27.0943 -6.2681,-46.1008 -6.2681,-19.0065 -16.3779,-30.7338 -10.312,-12.1318 -23.8592,-17.5911 -13.3449,-5.4593 -27.9031,-5.4593 -14.7603,0 -27.9031,5.2571 -12.9405,5.2571 -23.8591,17.3889 -10.1098,11.323 -16.5801,31.3404 -6.2681,19.8152 -6.2681,46.1007 0,26.8922 6.0659,45.8986 6.2681,18.8043 16.3779,30.7338 10.1098,11.9296 23.6569,17.5911 13.5472,5.6615 28.5097,5.6615 14.9625,0 28.5097,-5.6615 13.5471,-5.8637 23.657,-17.9955 z" />
      <path
         id="path1195"
         style="font-style:normal;font-variant:normal;font-weight:bold;font-stretch:normal;font-size:414.09800000000001319px;font-family:'Droid Arabic Kufi';-inkscape-font-specification:'Droid Arabic Kufi, Bold';font-variant-ligatures:normal;font-variant-caps:normal;font-variant-numeric:normal;font-variant-east-asian:normal;fill:#0b8dbd;fill-opacity:1"
         d="m 6583.9054,6280.7487 q 0,55.8062 -33.969,85.529 -33.969,29.7229 -100.0872,29.7229 -66.1181,0 -100.0871,-29.7229 -33.7668,-29.7228 -33.7668,-85.3268 v -192.2887 h 78.0478 v 187.8404 q 0,31.3404 13.1427,46.7073 13.1428,15.3669 42.6634,15.3669 29.1163,0 42.4613,-14.7603 13.5471,-14.7603 13.5471,-47.3139 v -187.8404 h 78.0478 z" />
      <path
         id="path1197"
         style="font-style:normal;font-variant:normal;font-weight:bold;font-stretch:normal;font-size:414.09800000000001319px;font-family:'Droid Arabic Kufi';-inkscape-font-specification:'Droid Arabic Kufi, Bold';font-variant-ligatures:normal;font-variant-caps:normal;font-variant-numeric:normal;font-variant-east-asian:normal;fill:#0b8dbd;fill-opacity:1"
         d="m 6825.5299,6180.8637 q 0,-11.323 -4.6505,-19.4108 -4.6505,-8.0879 -15.9735,-12.7384 -7.8857,-3.2351 -18.3999,-3.8417 -10.5142,-0.8088 -24.4657,-0.8088 h -28.1053 v 81.0807 h 23.8592 q 18.602,0 31.1382,-1.8198 12.5362,-1.8197 21.0284,-8.29 8.0879,-6.2681 11.7274,-13.7494 3.8417,-7.6834 3.8417,-20.4218 z m 121.1156,208.8688 h -94.8301 l -82.0917,-110.3992 h -35.7887 v 110.3992 h -77.239 v -301.0703 h 130.2144 q 26.6899,0 45.8986,3.033 19.2086,3.0329 35.9909,13.1427 16.9845,10.1098 26.8921,26.2855 10.1098,15.9735 10.1098,40.2371 0,33.3624 -15.5691,54.3908 -15.3669,21.0284 -44.0788,34.98 z" />
      <path
         id="path1199"
         style="font-style:normal;font-variant:normal;font-weight:bold;font-stretch:normal;font-size:414.09800000000001319px;font-family:'Droid Arabic Kufi';-inkscape-font-specification:'Droid Arabic Kufi, Bold';font-variant-ligatures:normal;font-variant-caps:normal;font-variant-numeric:normal;font-variant-east-asian:normal;fill:#0b8dbd;fill-opacity:1"
         d="m 7117.0969,6395.5962 q -33.5646,0 -62.0743,-9.9076 -28.3075,-9.9077 -48.7293,-29.5207 -20.4218,-19.613 -31.7448,-48.9315 -11.1208,-29.3185 -11.1208,-67.7358 0,-35.7887 10.7164,-64.905 10.7164,-29.1162 31.1382,-49.9424 19.6131,-20.0175 48.5271,-30.9361 29.1163,-10.9186 63.4897,-10.9186 19.0064,0 34.1711,2.2242 15.367,2.0219 28.3075,5.4593 13.5472,3.8417 24.4658,8.6944 11.1208,4.6505 19.4108,8.6945 v 72.9928 h -8.8966 q -5.6615,-4.8527 -14.356,-11.5252 -8.4922,-6.6724 -19.4108,-13.1427 -11.1208,-6.4703 -24.0614,-10.9186 -12.9405,-4.4483 -27.7009,-4.4483 -16.3779,0 -31.1382,5.2571 -14.7603,5.0549 -27.2965,16.9845 -11.9296,11.5251 -19.4108,30.5316 -7.2791,19.0064 -7.2791,46.1007 0,28.3075 7.8857,47.314 8.0878,19.0064 20.2196,29.925 12.334,11.1208 27.4987,15.9735 15.1647,4.6505 29.925,4.6505 14.1538,0 27.9031,-4.2461 13.9516,-4.2461 25.679,-11.5252 9.9076,-5.8637 18.3998,-12.5361 8.4923,-6.6725 13.9516,-11.5252 h 8.0878 v 71.9819 q -11.323,5.0549 -21.635,9.5032 -10.312,4.4483 -21.635,7.6834 -14.7603,4.2462 -27.7009,6.4703 -12.9405,2.2242 -35.5865,2.2242 z" />
      <path
         id="path1201"
         style="font-style:normal;font-variant:normal;font-weight:bold;font-stretch:normal;font-size:414.09800000000001319px;font-family:'Droid Arabic Kufi';-inkscape-font-specification:'Droid Arabic Kufi, Bold';font-variant-ligatures:normal;font-variant-caps:normal;font-variant-numeric:normal;font-variant-east-asian:normal;fill:#0b8dbd;fill-opacity:1"
         d="m 7498.8433,6389.7325 h -217.7654 v -301.0703 h 217.7654 v 58.2325 h -140.5265 v 51.9645 h 130.4166 v 58.2325 H 7358.3168 V 6331.5 h 140.5265 z" />
      <path
         id="path1203"
         style="font-style:normal;font-variant:normal;font-weight:bold;font-stretch:normal;font-size:517.62199999999995725px;font-family:'Droid Arabic Kufi';-inkscape-font-specification:'Droid Arabic Kufi, Bold';font-variant-ligatures:normal;font-variant-caps:normal;font-variant-numeric:normal;font-variant-east-asian:normal;fill:#0b8dbd;fill-opacity:1"
         d="m 7884.8846,6397.0621 q -41.9557,0 -77.5928,-12.3845 -35.3843,-12.3845 -60.9115,-36.9008 -25.5273,-24.5163 -39.681,-61.1643 -13.901,-36.6481 -13.901,-84.6696 0,-44.7359 13.3955,-81.1312 13.3955,-36.3953 38.9227,-62.4281 24.5163,-25.0217 60.6589,-38.67 36.3953,-13.6482 79.3619,-13.6482 23.7581,0 42.7139,2.7802 19.2087,2.5274 35.3844,6.8241 16.9339,4.8022 30.5821,10.868 13.901,5.8132 24.2636,10.8681 v 91.241 h -11.1208 q -7.0769,-6.0659 -17.9449,-14.4065 -10.6153,-8.3406 -24.2636,-16.4284 -13.9009,-8.0879 -30.0766,-13.6483 -16.1757,-5.5604 -34.6261,-5.5604 -20.4724,0 -38.9228,6.5714 -18.4504,6.3186 -34.1206,21.2306 -14.9119,14.4065 -24.2635,38.1645 -9.0988,23.7581 -9.0988,57.6259 0,35.3843 9.857,59.1424 10.1099,23.758 25.2746,37.4062 15.4174,13.901 34.3733,19.9669 18.9559,5.8131 37.4063,5.8131 17.6921,0 34.8788,-5.3076 17.4394,-5.3077 32.0986,-14.4065 12.3845,-7.3296 22.9998,-15.6702 10.6153,-8.3406 17.4395,-14.4064 h 10.1098 v 89.9772 q -14.1538,6.3186 -27.0438,11.879 -12.89,5.5604 -27.0437,9.6044 -18.4504,5.3076 -34.6261,8.0878 -16.1757,2.7802 -44.4831,2.7802 z" />
      <path
         id="path1205"
         style="font-style:normal;font-variant:normal;font-weight:bold;font-stretch:normal;font-size:414.09800000000001319px;font-family:'Droid Arabic Kufi';-inkscape-font-specification:'Droid Arabic Kufi, Bold';font-variant-ligatures:normal;font-variant-caps:normal;font-variant-numeric:normal;font-variant-east-asian:normal;fill:#0b8dbd;fill-opacity:1"
         d="m 8298.022,6389.7325 h -217.7654 v -301.0703 h 217.7654 v 58.2325 h -140.5265 v 51.9645 h 130.4166 v 58.2325 H 8157.4955 V 6331.5 h 140.5265 z" />
      <path
         id="path1207"
         style="font-style:normal;font-variant:normal;font-weight:bold;font-stretch:normal;font-size:414.09800000000001319px;font-family:'Droid Arabic Kufi';-inkscape-font-specification:'Droid Arabic Kufi, Bold';font-variant-ligatures:normal;font-variant-caps:normal;font-variant-numeric:normal;font-variant-east-asian:normal;fill:#0b8dbd;fill-opacity:1"
         d="m 8637.105,6389.7325 h -74.8126 l -127.788,-206.6446 v 206.6446 h -71.1731 v -301.0703 h 92.8081 l 109.7925,172.4734 v -172.4734 h 71.1731 z" />
      <path
         id="path1209"
         style="font-style:normal;font-variant:normal;font-weight:bold;font-stretch:normal;font-size:414.09800000000001319px;font-family:'Droid Arabic Kufi';-inkscape-font-specification:'Droid Arabic Kufi, Bold';font-variant-ligatures:normal;font-variant-caps:normal;font-variant-numeric:normal;font-variant-east-asian:normal;fill:#0b8dbd;fill-opacity:1"
         d="m 8949.9026,6146.8947 h -94.0212 v 242.8378 h -77.6434 v -242.8378 h -94.0213 v -58.2325 h 265.6859 z" />
      <path
         id="path1211"
         style="font-style:normal;font-variant:normal;font-weight:bold;font-stretch:normal;font-size:414.09800000000001319px;font-family:'Droid Arabic Kufi';-inkscape-font-specification:'Droid Arabic Kufi, Bold';font-variant-ligatures:normal;font-variant-caps:normal;font-variant-numeric:normal;font-variant-east-asian:normal;fill:#0b8dbd;fill-opacity:1"
         d="m 9214.376,6389.7325 h -217.7654 v -301.0703 h 217.7654 v 58.2325 h -140.5265 v 51.9645 h 130.4167 v 58.2325 H 9073.8495 V 6331.5 h 140.5265 z" />
      <path
         id="path1213"
         style="font-style:normal;font-variant:normal;font-weight:bold;font-stretch:normal;font-size:414.09800000000001319px;font-family:'Droid Arabic Kufi';-inkscape-font-specification:'Droid Arabic Kufi, Bold';font-variant-ligatures:normal;font-variant-caps:normal;font-variant-numeric:normal;font-variant-east-asian:normal;fill:#0b8dbd;fill-opacity:1"
         d="m 9448.5187,6180.8637 q 0,-11.323 -4.6505,-19.4108 -4.6505,-8.0879 -15.9735,-12.7384 -7.8857,-3.2351 -18.3999,-3.8417 -10.5142,-0.8088 -24.4658,-0.8088 h -28.1052 v 81.0807 h 23.8591 q 18.6021,0 31.1383,-1.8198 12.5361,-1.8197 21.0284,-8.29 8.0878,-6.2681 11.7274,-13.7494 3.8417,-7.6834 3.8417,-20.4218 z m 121.1156,208.8688 h -94.8301 l -82.0917,-110.3992 h -35.7887 v 110.3992 h -77.239 v -301.0703 h 130.2144 q 26.6899,0 45.8985,3.033 19.2087,3.0329 35.991,13.1427 16.9845,10.1098 26.8921,26.2855 10.1098,15.9735 10.1098,40.2371 0,33.3624 -15.5691,54.3908 -15.3669,21.0284 -44.0788,34.98 z" />
      <path
         d="m 2005.4156,6389.7325 h -176.3151 v -53.3798 h 49.3359 V 6142.042 h -49.3359 v -53.3798 h 176.3151 v 53.3798 h -49.3359 v 194.3107 h 49.3359 z"
         style="font-style:normal;font-variant:normal;font-weight:bold;font-stretch:normal;font-size:414.09800000000001319px;font-family:'Droid Arabic Kufi';-inkscape-font-specification:'Droid Arabic Kufi, Bold';font-variant-ligatures:normal;font-variant-caps:normal;font-variant-numeric:normal;font-variant-east-asian:normal;fill:#0b8dbd;fill-opacity:1"
         id="path1039" />
    </g>
  </g>
</svg>
